<?xml version="1.0" standalone="no"?>
<!DOCTYPE svg PUBLIC "-//W3C//DTD SVG 20010904//EN"
 "http://www.w3.org/TR/2001/REC-SVG-20010904/DTD/svg10.dtd">
<svg version="1.0" xmlns="http://www.w3.org/2000/svg"
 width="1864.000000pt" height="550.000000pt" viewBox="0 0 1864.000000 550.000000"
 preserveAspectRatio="xMidYMid meet">

<g transform="translate(0.000000,550.000000) scale(0.100000,-0.100000)"
fill="#000000" stroke="none">
<path d="M15962 5481 c-133 -46 -156 -151 -48 -219 25 -16 89 -41 142 -56 154
-43 222 -86 245 -153 31 -96 -111 -193 -265 -181 -104 9 -216 73 -216 124 0
11 -7 13 -27 8 -39 -9 -39 -9 -11 -52 102 -154 462 -152 558 3 35 57 22 132
-32 182 -33 31 -138 78 -216 98 -85 20 -162 62 -182 98 -13 24 -13 30 0 54 23
41 64 65 119 71 68 6 115 -4 150 -33 29 -25 65 -33 75 -16 10 16 -52 60 -106
76 -67 20 -121 19 -186 -4z"/>
<path d="M18201 5481 c-71 -25 -115 -69 -115 -116 0 -72 60 -117 212 -159 151
-43 220 -86 243 -153 31 -96 -111 -193 -265 -181 -104 9 -216 73 -216 124 0
11 -7 13 -27 8 -39 -9 -39 -9 -11 -52 16 -24 48 -50 85 -70 198 -105 493 -18
493 145 0 80 -85 153 -225 194 -157 46 -213 75 -229 122 -12 34 14 73 65 99
63 33 181 18 218 -25 14 -18 56 -23 65 -8 10 16 -52 60 -106 76 -67 20 -121
19 -187 -4z"/>
<path d="M12392 5168 l3 -323 223 -3 c217 -2 222 -2 222 18 0 19 -6 20 -195
20 l-195 0 0 305 0 305 -30 0 -30 0 2 -322z"/>
<path d="M13400 5165 l0 -325 255 0 c248 0 255 1 255 20 0 19 -7 20 -225 20
l-225 0 0 135 0 135 225 0 c192 0 225 2 225 15 0 12 -34 15 -222 17 l-223 3
-3 133 -3 132 226 0 c218 0 225 1 225 20 0 19 -7 20 -255 20 l-255 0 0 -325z"/>
<path d="M14520 5164 l0 -325 28 3 27 3 3 268 2 267 273 -241 c149 -133 289
-258 310 -278 l37 -35 0 332 0 332 -30 0 -30 0 -2 -269 -3 -270 -303 270
c-167 148 -305 269 -308 269 -2 0 -4 -147 -4 -326z"/>
<path d="M16930 5165 l0 -325 255 0 c248 0 255 1 255 20 0 19 -7 20 -230 20
l-231 0 3 133 3 132 228 3 c191 2 227 5 227 17 0 12 -36 15 -227 17 l-228 3
-3 133 -3 132 231 0 c223 0 230 1 230 20 0 19 -7 20 -255 20 l-255 0 0 -325z"/>
<path d="M1504 4003 c-15 -32 -143 -326 -286 -653 -143 -327 -266 -608 -273
-625 -8 -16 -106 -243 -219 -503 -113 -260 -222 -504 -241 -542 -61 -121 -141
-189 -222 -190 -30 0 -33 -3 -33 -30 l0 -30 355 0 355 0 0 24 c0 22 -5 23 -74
29 -190 16 -230 79 -166 261 33 94 138 347 194 469 l35 77 474 0 474 0 12 -27
c16 -35 245 -594 298 -728 l39 -100 212 -3 c117 -1 212 1 212 4 0 6 -436 1050
-625 1499 -47 110 -172 407 -277 659 -106 253 -199 461 -206 464 -7 2 -23 -19
-38 -55z m36 -888 c62 -148 140 -337 175 -420 35 -82 74 -177 88 -210 l25 -60
-415 -3 c-229 -1 -418 -1 -420 2 -2 2 21 61 52 132 31 71 126 292 212 492 94
218 159 358 164 350 4 -7 57 -134 119 -283z"/>
<path d="M10021 4018 c-21 -50 -618 -1415 -696 -1593 -29 -66 -105 -239 -168
-385 -150 -347 -190 -428 -235 -475 -43 -44 -103 -74 -149 -75 -30 0 -33 -3
-33 -30 l0 -30 355 0 355 0 0 24 c0 22 -5 23 -76 29 -89 8 -155 34 -180 71
-36 56 -3 168 161 539 l87 197 472 0 473 0 12 -27 c18 -39 252 -610 299 -728
l40 -100 211 -3 c118 -1 211 2 211 6 0 10 -15 45 -280 677 -83 198 -300 717
-483 1152 -194 464 -337 793 -345 793 -7 0 -21 -19 -31 -42z m114 -1105 l204
-488 -210 -3 c-115 -1 -303 -1 -419 0 l-209 3 170 395 c94 217 189 439 211
492 23 54 44 96 46 94 2 -3 95 -224 207 -493z"/>
<path d="M17260 3478 c-139 -321 -268 -614 -286 -653 -17 -38 -65 -149 -107
-245 -184 -430 -362 -831 -404 -912 -63 -123 -134 -178 -227 -178 -24 0 -27
-4 -24 -28 l3 -27 358 -3 357 -2 0 23 c0 23 -4 24 -78 30 -92 7 -127 19 -164
54 -54 51 -46 103 54 352 56 142 157 370 171 389 7 9 116 12 481 12 l472 0
136 -332 c75 -183 153 -377 174 -430 l37 -98 214 0 c168 0 214 3 210 13 -558
1336 -1099 2613 -1109 2615 -9 2 -97 -189 -268 -580z m285 -408 c24 -58 91
-220 150 -360 59 -140 109 -263 112 -272 5 -17 -19 -18 -411 -18 -258 0 -416
4 -416 10 0 5 18 51 41 102 23 51 109 251 191 443 83 193 160 370 170 395 l19
45 51 -120 c27 -66 69 -167 93 -225z"/>
<path d="M4094 4015 c-13 -34 3 -42 90 -47 152 -10 231 -67 256 -183 7 -34 10
-381 8 -1090 l-3 -1040 -22 -40 c-45 -84 -105 -115 -235 -123 l-88 -5 0 -28 0
-29 255 0 255 0 2 1072 3 1071 129 -294 c71 -162 193 -440 272 -619 79 -179
233 -527 342 -775 180 -410 200 -450 221 -450 22 0 44 47 258 530 264 598 396
896 586 1330 l132 300 3 -1083 2 -1082 368 2 c364 3 367 3 370 24 3 19 -3 22
-78 28 -138 11 -226 59 -262 141 -10 24 -13 158 -13 635 0 333 -1 867 -2 1188
l-3 582 -177 -2 -177 -3 -154 -350 c-84 -192 -234 -532 -332 -755 -98 -223
-224 -511 -280 -640 -56 -129 -103 -236 -105 -238 -1 -1 -51 109 -110 245 -60
137 -204 464 -320 728 -117 264 -265 600 -330 748 l-118 267 -369 0 c-318 0
-369 -2 -374 -15z"/>
<path d="M12398 4024 c-5 -4 -8 -15 -8 -24 0 -13 18 -18 89 -26 117 -14 175
-43 216 -109 l30 -49 -2 -1087 c-2 -1185 2 -1113 -56 -1176 -29 -32 -113 -61
-201 -69 -71 -6 -76 -8 -76 -30 l0 -24 360 0 360 0 0 615 0 615 118 -1 117 0
405 -540 c223 -298 429 -567 458 -599 100 -112 233 -151 445 -131 58 6 137 18
176 26 64 15 71 19 71 40 0 25 4 24 -107 41 -132 20 -236 116 -498 464 -105
140 -274 362 -374 494 l-182 239 99 32 c55 18 134 50 177 71 260 130 391 377
355 668 -21 167 -97 306 -216 395 -74 54 -113 74 -207 106 -162 54 -210 57
-902 62 -352 3 -643 1 -647 -3z m1176 -143 c167 -59 280 -173 332 -335 107
-338 -51 -630 -394 -725 -91 -25 -246 -43 -332 -39 l-65 3 -3 532 -2 531 57
22 c89 34 130 39 243 35 73 -2 123 -10 164 -24z"/>
<path d="M1319 430 c-194 -31 -321 -136 -290 -241 33 -109 189 -180 396 -180
147 0 244 27 339 94 40 28 69 97 60 143 -13 68 -105 138 -227 170 -69 18 -208
25 -278 14z m302 -48 c105 -41 159 -97 159 -166 0 -57 -71 -124 -166 -157
-100 -34 -278 -34 -378 0 -95 33 -166 100 -166 157 0 73 71 140 179 170 31 9
61 17 66 20 6 2 64 2 130 0 93 -2 132 -8 176 -24z"/>
<path d="M7340 430 c-114 -18 -232 -77 -271 -136 -12 -18 -19 -47 -19 -76 0
-41 5 -54 34 -86 75 -82 199 -124 366 -123 251 1 430 112 396 246 -16 62 -111
131 -220 159 -74 20 -215 27 -286 16z m255 -35 c127 -34 205 -98 205 -171 0
-54 -30 -98 -92 -133 -209 -120 -583 -51 -613 113 -15 80 68 156 210 192 71
18 219 17 290 -1z"/>
<path d="M280 220 l0 -210 170 0 c214 0 232 18 23 22 l-148 3 -3 198 c-2 189
-3 197 -22 197 -19 0 -20 -7 -20 -210z"/>
<path d="M2361 220 c78 -116 145 -210 148 -210 4 0 71 94 150 210 127 187 139
210 118 210 -19 0 -44 -31 -142 -175 -65 -96 -122 -175 -125 -175 -4 0 -60 79
-125 175 -98 143 -123 175 -143 175 -20 0 -7 -23 119 -210z"/>
<path d="M3220 220 l0 -210 195 0 c120 0 195 4 195 10 0 6 -69 11 -172 12
l-173 3 0 85 0 85 173 3 c100 1 172 6 172 12 0 6 -72 11 -172 12 l-173 3 0 85
0 85 173 3 c103 1 172 6 172 12 0 6 -75 10 -195 10 l-195 0 0 -210z"/>
<path d="M4080 220 l0 -210 170 0 c107 0 170 4 170 10 0 6 -57 10 -150 10
l-150 0 0 200 c0 193 -1 200 -20 200 -19 0 -20 -7 -20 -210z"/>
<path d="M4815 304 l135 -127 0 -83 c0 -77 2 -84 20 -84 18 0 20 7 20 84 l0
83 132 124 c109 103 128 125 109 127 -16 3 -52 -25 -141 -109 l-120 -111 -97
90 c-54 49 -107 99 -117 111 -11 12 -31 21 -47 21 -26 0 -15 -13 106 -126z"/>
<path d="M6300 220 l0 -210 25 0 25 0 0 100 0 100 145 0 c90 0 145 4 145 10 0
6 -55 10 -145 10 l-145 0 0 90 0 90 145 0 c90 0 145 4 145 10 0 6 -63 10 -170
10 l-170 0 0 -210z"/>
<path d="M8290 220 c0 -203 1 -210 20 -210 18 0 20 7 20 75 l0 75 70 0 69 0
91 -76 c68 -56 97 -74 115 -72 22 3 15 11 -60 72 l-85 70 62 23 c83 29 133 81
124 126 -3 19 -20 45 -41 63 -51 46 -129 64 -268 64 l-117 0 0 -210z m295 166
c113 -48 116 -125 5 -182 -25 -13 -66 -19 -147 -22 l-113 -5 0 118 0 118 108
-5 c67 -4 122 -12 147 -22z"/>
<path d="M9160 220 l0 -210 195 0 c123 0 195 4 195 10 0 6 -65 10 -175 10
l-175 0 0 90 0 90 175 0 c110 0 175 4 175 10 0 6 -65 10 -175 10 l-175 0 0 90
0 90 175 0 c110 0 175 4 175 10 0 6 -72 10 -195 10 l-195 0 0 -210z"/>
<path d="M9986 403 c10 -16 75 -113 145 -216 l128 -188 112 168 c61 92 127
189 146 216 l35 47 -26 0 c-22 0 -42 -25 -147 -181 l-121 -180 -121 180 c-101
149 -126 181 -146 181 -23 0 -23 0 -5 -27z"/>
<path d="M10970 220 l0 -210 195 0 c120 0 195 4 195 10 0 6 -69 11 -172 12
l-173 3 -3 88 -3 87 176 0 c110 0 175 4 175 10 0 6 -65 10 -175 10 l-176 0 3
88 3 87 173 3 c103 1 172 6 172 12 0 6 -75 10 -195 10 l-195 0 0 -210z"/>
<path d="M11820 221 l0 -211 25 0 c24 0 25 2 25 75 l0 75 69 0 69 0 90 -75
c63 -53 98 -75 117 -75 24 0 19 6 -47 61 -112 93 -108 85 -43 103 62 19 121
66 130 106 9 41 -28 88 -93 118 -52 24 -70 27 -199 30 l-143 4 0 -211z m294
168 c52 -18 96 -60 96 -94 0 -68 -104 -115 -252 -115 l-88 0 0 116 0 117 103
-6 c56 -3 119 -11 141 -18z"/>
</g>
</svg>
