<?xml version="1.0" standalone="no"?>
<!DOCTYPE svg PUBLIC "-//W3C//DTD SVG 20010904//EN"
 "http://www.w3.org/TR/2001/REC-SVG-20010904/DTD/svg10.dtd">
<svg version="1.0" xmlns="http://www.w3.org/2000/svg"
 width="3000.000000pt" height="2000.000000pt" viewBox="0 0 3000.000000 2000.000000"
 preserveAspectRatio="xMidYMid meet">

<g transform="translate(0.000000,2000.000000) scale(0.100000,-0.100000)"
fill="#000000" stroke="none">
<path d="M3460 10035 l0 -1495 868 0 c983 0 967 -1 1138 79 226 106 386 293
460 536 24 80 27 106 27 230 0 124 -3 150 -27 230 -79 259 -254 455 -498 555
-32 13 -58 26 -58 29 0 3 16 17 35 30 58 39 161 155 200 226 118 210 125 454
20 670 -96 197 -259 331 -471 385 -74 19 -114 20 -886 20 l-808 0 0 -1495z
m1289 935 c77 -13 130 -39 180 -89 145 -145 111 -386 -70 -486 l-54 -30 -327
-3 -328 -3 0 310 0 311 268 0 c147 0 296 -5 331 -10z m243 -1181 c115 -25 205
-97 255 -204 22 -49 27 -74 27 -135 -1 -143 -68 -251 -192 -312 l-67 -33 -432
-3 -433 -3 0 351 0 350 395 0 c254 0 413 -4 447 -11z"/>
<path d="M6272 10538 c4 -1097 3 -1064 70 -1278 113 -358 376 -615 740 -724
183 -55 236 -61 503 -61 221 1 262 3 352 23 337 74 580 227 746 469 56 84 93
161 132 276 71 212 68 162 72 1280 l4 1007 -350 0 -350 0 -4 -962 c-3 -1074 1
-1013 -74 -1168 -63 -131 -181 -229 -333 -274 -30 -9 -100 -20 -155 -23 -259
-15 -465 88 -566 282 -88 168 -89 188 -89 1247 l0 898 -351 0 -350 0 3 -992z"/>
<path d="M9400 10035 l0 -1495 340 0 340 0 0 580 0 580 269 0 270 0 329 -577
329 -578 381 -3 381 -2 -301 527 c-165 291 -325 570 -354 621 -30 52 -54 97
-54 101 0 5 29 25 65 46 198 116 351 318 417 550 19 68 23 104 23 235 0 131
-4 167 -23 235 -81 283 -288 512 -558 617 -150 58 -151 58 -1040 58 l-814 0 0
-1495z m1555 886 c81 -33 155 -107 184 -186 31 -81 26 -187 -11 -260 -48 -93
-142 -160 -256 -184 -33 -7 -192 -11 -427 -11 l-375 0 0 335 0 336 413 -3
c409 -3 412 -3 472 -27z"/>
<path d="M12360 10035 l0 -1495 858 0 c546 0 881 4 922 11 376 60 672 373 708
749 31 314 -108 611 -368 787 -52 35 -140 80 -188 97 l-35 12 67 52 c193 152
299 411 266 652 -40 295 -254 538 -536 610 -74 19 -114 20 -886 20 l-808 0 0
-1495z m1352 921 c66 -25 141 -95 175 -164 22 -46 27 -70 27 -127 0 -95 -30
-160 -101 -225 -84 -77 -102 -80 -465 -80 l-308 0 0 303 c0 167 3 307 7 311 4
4 145 6 313 4 262 -4 312 -7 352 -22z m189 -1170 c114 -26 210 -109 250 -215
17 -45 20 -72 17 -136 -7 -139 -74 -242 -196 -302 l-57 -28 -437 -3 -438 -3 0
344 c0 189 3 347 7 350 3 4 184 7 402 7 294 0 411 -4 452 -14z"/>
<path d="M15230 10035 l0 -1495 1155 0 1155 0 0 300 0 300 -805 0 -805 0 0
320 0 320 675 0 675 0 0 290 0 290 -675 0 -675 0 0 300 0 300 770 0 770 0 0
285 0 285 -1120 0 -1120 0 0 -1495z"/>
<path d="M18010 10035 l0 -1495 340 0 340 0 0 580 0 580 273 0 272 -1 330
-579 329 -580 379 0 378 0 -12 23 c-7 12 -167 294 -357 627 -189 332 -339 606
-333 608 30 10 170 109 218 155 208 196 316 488 284 764 -47 395 -340 718
-723 797 -67 14 -188 16 -898 16 l-820 0 0 -1495z m1505 901 c145 -38 229
-124 254 -258 29 -160 -56 -305 -216 -370 -57 -22 -67 -23 -465 -26 l-408 -3
0 335 0 336 393 0 c295 0 404 -4 442 -14z"/>
<path d="M20970 10035 l0 -1495 340 0 340 0 0 580 0 580 273 0 273 0 329 -580
330 -579 378 -1 c207 0 377 2 377 5 0 2 -160 284 -355 627 l-355 622 50 27
c108 59 237 177 309 281 49 73 108 204 132 293 32 118 32 327 1 445 -92 343
-364 604 -704 674 -67 14 -187 16 -898 16 l-820 0 0 -1495z m1570 879 c90 -43
124 -75 162 -152 29 -59 33 -76 33 -147 0 -67 -5 -89 -28 -137 -45 -92 -125
-152 -244 -183 -46 -12 -133 -15 -440 -15 l-383 0 0 336 0 335 418 -3 417 -3
65 -31z"/>
<path d="M23430 11526 c0 -2 266 -400 590 -885 l590 -881 0 -610 0 -610 370 0
370 0 0 613 1 612 589 878 c325 483 590 880 590 883 0 2 -195 4 -433 4 l-434
0 -339 -510 c-186 -280 -341 -509 -344 -509 -3 0 -158 229 -344 509 l-339 510
-434 0 c-238 0 -433 -2 -433 -4z"/>
</g>
</svg>
