<?xml version="1.0" standalone="no"?>
<!DOCTYPE svg PUBLIC "-//W3C//DTD SVG 20010904//EN"
 "http://www.w3.org/TR/2001/REC-SVG-20010904/DTD/svg10.dtd">
<svg version="1.0" xmlns="http://www.w3.org/2000/svg"
 width="1280.000000pt" height="845.000000pt" viewBox="0 0 1280.000000 845.000000"
 preserveAspectRatio="xMidYMid meet">

<g transform="translate(0.000000,845.000000) scale(0.100000,-0.100000)"
fill="#000000" stroke="none">
<path d="M6125 8409 c-938 -81 -1798 -594 -2323 -1384 -823 -1238 -659 -2879
393 -3930 502 -502 1128 -805 1855 -897 138 -17 562 -17 700 0 371 47 703 145
1017 299 1157 567 1844 1771 1742 3054 -103 1303 -1021 2412 -2283 2758 -343
94 -744 130 -1101 100z m567 -604 c299 -35 567 -115 833 -250 398 -201 721
-484 967 -850 l81 -120 -309 -5 -309 -5 -460 -429 -460 -428 -3 431 -2 431
-396 -2 -397 -3 -322 -788 c-177 -433 -324 -789 -326 -792 -3 -2 -144 353
-314 790 l-309 795 -369 2 -369 3 62 95 c405 619 1075 1036 1807 1125 150 18
442 18 595 0z m-2514 -3098 l-3 -592 -32 61 c-105 201 -188 460 -235 730 -30
175 -33 587 -5 762 40 251 116 498 216 702 l56 115 3 -593 c1 -325 1 -859 0
-1185z m4525 1620 c90 -206 150 -406 189 -632 19 -112 22 -166 22 -395 0 -229
-3 -283 -22 -395 -24 -138 -65 -304 -106 -421 -38 -112 -117 -295 -126 -292
-5 2 -227 284 -493 628 l-485 625 116 120 c294 304 848 865 853 865 4 0 27
-46 52 -103z m-3669 -1702 l264 -610 272 0 273 0 276 636 276 636 3 -639 2
-638 298 2 297 3 7 310 c5 171 11 369 14 440 l6 130 95 79 c89 73 95 77 108
60 8 -11 198 -244 422 -519 l408 -500 253 -3 c138 -1 252 -6 252 -10 0 -12
-110 -172 -187 -271 -88 -113 -283 -308 -408 -407 -567 -449 -1278 -629 -2000
-509 -569 96 -1126 418 -1498 868 -81 98 -227 303 -227 319 0 4 110 8 243 8
l244 0 6 368 c4 202 7 491 8 642 0 248 2 272 15 245 8 -16 133 -304 278 -640z"/>
<path d="M2313 1315 c-191 -52 -334 -204 -390 -415 -25 -91 -25 -348 0 -440
76 -285 284 -442 567 -427 238 13 415 154 484 386 9 30 16 65 16 78 0 22 -3
23 -78 23 l-77 0 -12 -49 c-31 -131 -111 -234 -211 -271 -48 -18 -74 -21 -157
-18 -85 3 -110 8 -163 32 -101 47 -162 128 -199 266 -25 93 -25 323 1 405 36
121 110 216 202 263 91 46 231 52 339 15 72 -24 148 -102 171 -176 l18 -57 78
0 c91 0 92 2 57 97 -54 144 -171 246 -330 288 -69 19 -247 18 -316 0z"/>
<path d="M9610 1314 c-98 -26 -161 -63 -240 -143 -105 -106 -157 -216 -180
-382 -32 -226 37 -455 180 -600 115 -116 255 -165 450 -156 181 8 314 70 411
192 121 151 174 348 149 549 -21 172 -78 294 -190 406 -108 109 -223 150 -415
149 -63 0 -134 -7 -165 -15z m262 -135 c160 -34 291 -173 327 -347 16 -76 14
-247 -4 -316 -36 -136 -126 -254 -234 -305 -51 -24 -67 -26 -176 -26 -116 0
-123 1 -187 33 -110 54 -196 171 -228 312 -19 79 -16 233 5 318 30 124 110
234 209 288 91 50 188 64 288 43z"/>
<path d="M12089 1311 c-102 -33 -176 -96 -226 -195 -22 -41 -28 -69 -31 -143
-4 -85 -2 -98 22 -148 51 -104 111 -135 381 -199 273 -65 317 -84 352 -149 22
-43 22 -142 -1 -185 -23 -44 -85 -87 -149 -103 -75 -18 -231 -16 -298 4 -107
32 -178 112 -194 220 l-7 47 -74 0 -74 0 0 -43 c0 -97 57 -219 130 -277 225
-178 677 -132 799 82 81 141 55 331 -57 428 -62 53 -112 71 -355 126 -281 64
-319 88 -318 203 0 112 61 177 187 201 202 38 370 -48 399 -203 l7 -37 78 0
77 0 -9 58 c-26 165 -132 277 -300 317 -89 21 -268 19 -339 -4z"/>
<path d="M32 683 l3 -618 79 0 80 0 -3 518 c-1 284 0 517 3 517 3 0 83 -234
177 -520 l171 -520 82 0 81 0 175 520 175 520 3 -520 2 -520 80 0 80 0 0 620
0 620 -119 0 -119 0 -146 -432 c-80 -238 -159 -470 -174 -515 -15 -46 -31 -83
-37 -83 -5 0 -87 231 -181 513 l-171 512 -121 3 -122 3 2 -618z"/>
<path d="M1500 680 l0 -621 83 3 82 3 3 618 2 617 -85 0 -85 0 0 -620z"/>
<path d="M3200 680 l0 -620 85 0 85 0 0 290 0 290 320 0 320 0 2 -287 3 -288
83 -3 82 -3 0 621 0 620 -85 0 -85 0 0 -255 0 -255 -320 0 -320 0 0 255 0 255
-85 0 -85 0 0 -620z"/>
<path d="M4572 688 c-128 -338 -232 -617 -232 -621 0 -4 38 -7 84 -7 l83 0 64
180 64 180 250 0 250 0 61 -178 61 -177 87 -3 c65 -2 86 0 86 10 -1 7 -99 285
-219 618 l-217 605 -95 3 -95 3 -232 -613z m411 151 c48 -141 87 -259 87 -263
0 -3 -85 -6 -190 -6 l-189 0 50 143 c115 327 142 398 149 390 4 -4 46 -123 93
-264z"/>
<path d="M5610 680 l0 -620 455 0 455 0 0 75 0 75 -370 0 -370 0 0 210 0 210
335 0 335 0 0 70 0 70 -335 0 -335 0 0 190 0 190 365 0 365 0 0 75 0 75 -450
0 -450 0 0 -620z"/>
<path d="M6750 680 l0 -620 393 2 392 3 3 73 3 72 -316 0 -315 0 0 545 0 545
-80 0 -80 0 0 -620z"/>
<path d="M8180 680 l0 -620 85 0 85 0 0 218 0 217 96 95 c92 92 96 94 110 74
8 -11 106 -151 218 -310 l203 -289 108 -3 107 -3 -38 53 c-20 29 -140 196
-265 370 l-228 317 257 250 257 250 -115 1 -115 0 -297 -297 -298 -298 0 298
0 297 -85 0 -85 0 0 -620z"/>
<path d="M10610 680 l0 -620 80 0 80 0 2 267 3 268 230 0 c199 0 236 -2 277
-18 85 -33 118 -94 118 -222 1 -82 16 -254 26 -278 5 -14 21 -17 105 -17 107
0 121 8 80 49 -29 29 -37 76 -48 256 -11 195 -26 239 -96 279 l-45 27 62 62
c72 73 96 131 96 236 0 130 -48 225 -139 275 -90 48 -155 56 -508 56 l-323 0
0 -620z m676 465 c53 -16 96 -53 113 -98 6 -16 11 -59 11 -96 0 -96 -28 -147
-99 -183 l-55 -28 -243 0 -243 0 0 210 0 210 233 0 c177 0 245 -4 283 -15z"/>
</g>
</svg>
