<?xml version="1.0" standalone="no"?>
<!DOCTYPE svg PUBLIC "-//W3C//DTD SVG 20010904//EN"
 "http://www.w3.org/TR/2001/REC-SVG-20010904/DTD/svg10.dtd">
<svg version="1.0" xmlns="http://www.w3.org/2000/svg"
 width="1280.000000pt" height="1280.000000pt" viewBox="0 0 1280.000000 1280.000000"
 preserveAspectRatio="xMidYMid meet">

<g transform="translate(0.000000,1280.000000) scale(0.100000,-0.100000)"
fill="#000000" stroke="none">
<path d="M8866 9454 c-240 -47 -466 -173 -656 -363 -118 -119 -176 -199 -275
-381 -242 -445 -274 -647 -295 -1870 -14 -786 -32 -1135 -67 -1288 -15 -66
-16 -77 -2 -100 24 -42 87 -37 191 16 126 64 206 134 248 216 34 67 34 68 41
244 4 97 8 335 8 527 1 413 17 1046 31 1300 13 215 48 486 85 648 95 423 299
754 498 808 109 29 241 -16 309 -106 65 -86 83 -156 83 -325 -1 -118 -5 -160
-23 -227 -73 -273 -252 -543 -630 -953 -145 -157 -174 -197 -198 -269 -46
-143 9 -244 307 -557 82 -85 157 -174 174 -205 28 -50 30 -61 30 -159 0 -92
-4 -112 -26 -160 -84 -176 -325 -476 -715 -887 -142 -151 -165 -179 -179 -225
-30 -103 -11 -209 66 -365 51 -104 102 -163 139 -163 30 0 84 54 128 128 111
187 417 555 852 1025 85 93 172 195 192 227 113 177 117 382 9 546 -48 74 -84
107 -246 229 -320 242 -495 401 -513 468 -22 79 4 112 176 230 367 253 576
443 745 679 75 105 170 299 197 403 73 272 2 581 -175 773 -77 83 -133 119
-214 138 -71 17 -205 16 -295 -2z"/>
<path d="M3050 8195 c-351 -57 -928 -244 -1404 -454 -406 -180 -892 -441
-1125 -604 -251 -176 -339 -378 -329 -754 2 -110 6 -134 21 -151 11 -12 26
-18 35 -15 10 3 55 43 102 88 438 420 1186 884 2080 1288 287 130 404 173 576
213 108 25 137 28 314 29 218 0 309 -14 415 -64 252 -119 342 -446 236 -863
-52 -207 -123 -343 -291 -555 -109 -139 -405 -435 -541 -544 -194 -154 -279
-189 -315 -133 -16 24 -16 75 1 812 9 433 16 824 14 869 -5 101 -22 126 -90
125 -46 -1 -193 -66 -274 -122 -82 -56 -78 -26 -87 -645 -21 -1406 -21 -1411
-42 -1434 -10 -11 -152 -95 -315 -186 -163 -92 -308 -180 -323 -196 -34 -36
-36 -69 -5 -103 18 -21 300 -162 542 -271 61 -27 94 -62 105 -108 4 -20 4
-242 -1 -493 -5 -251 -7 -459 -4 -463 10 -9 135 27 204 60 124 57 190 133 217
248 8 34 14 118 14 213 0 93 4 167 11 181 10 23 46 47 70 47 5 0 317 -148 692
-329 375 -181 696 -330 712 -331 62 -4 77 1 120 41 30 27 61 73 90 131 55 110
58 152 16 201 -32 36 -82 61 -1086 551 -537 262 -581 285 -597 317 -15 28 -18
61 -17 199 0 91 4 200 8 244 8 93 2 86 193 211 346 225 652 519 940 901 282
374 400 657 401 964 1 432 -258 747 -712 867 -84 22 -121 26 -291 29 -134 2
-222 -1 -280 -11z"/>
<path d="M12302 8145 c-62 -19 -106 -57 -136 -117 -66 -131 -5 -285 131 -334
150 -53 313 64 313 226 0 72 -26 126 -84 177 -67 59 -139 75 -224 48z m131
-26 c82 -23 147 -110 147 -200 0 -199 -259 -284 -374 -122 -75 107 -40 249 75
307 57 28 93 32 152 15z"/>
<path d="M12290 7920 c0 -109 2 -130 15 -130 12 0 15 13 15 60 0 60 0 60 29
60 25 0 35 -9 66 -60 24 -40 43 -60 56 -60 17 0 15 7 -17 55 -21 30 -35 56
-33 58 2 1 17 9 33 17 42 21 54 64 29 99 -19 24 -26 26 -107 29 l-86 3 0 -131z
m151 100 c21 -12 25 -50 7 -68 -7 -7 -38 -12 -70 -12 l-58 0 0 45 0 45 51 0
c28 0 59 -5 70 -10z"/>
<path d="M11795 7392 c-29 -18 -58 -60 -198 -292 -82 -136 -130 -190 -168
-190 -46 0 -53 19 -45 133 7 120 -2 164 -45 207 -60 59 -141 31 -217 -78 -51
-74 -87 -145 -159 -318 -110 -264 -209 -383 -291 -353 -48 18 -77 110 -93 294
-13 160 -26 210 -61 251 -26 29 -37 34 -75 34 -55 0 -87 -16 -141 -74 l-44
-46 -81 0 c-150 -1 -296 -74 -442 -224 -133 -136 -233 -308 -291 -501 -22 -73
-27 -111 -28 -200 -1 -99 2 -115 24 -160 63 -126 185 -128 349 -5 94 70 269
255 382 405 47 62 73 70 91 28 58 -145 129 -242 193 -263 50 -16 139 3 198 43
57 38 136 135 207 252 74 122 118 128 135 17 27 -177 149 -201 291 -56 69 70
145 186 245 373 85 158 104 179 152 167 36 -9 53 -42 87 -168 41 -152 92 -253
148 -293 39 -27 52 -30 115 -30 58 0 82 6 125 28 77 39 133 88 196 170 85 114
105 169 71 197 -12 10 -22 8 -53 -12 -54 -35 -70 -39 -113 -28 -94 26 -131 92
-195 357 -52 214 -72 267 -119 313 -43 41 -105 51 -150 22z m-1591 -724 c13
-36 -10 -92 -91 -226 -87 -143 -129 -198 -182 -233 -46 -30 -98 -38 -119 -17
-21 21 -13 80 21 163 42 102 76 155 146 229 75 79 136 118 181 114 27 -2 37
-9 44 -30z"/>
<path d="M6807 6315 c-163 -45 -295 -168 -332 -310 -38 -146 43 -252 207 -271
167 -19 385 100 458 251 28 58 38 156 21 208 -36 107 -202 164 -354 122z"/>
<path d="M6030 6144 c-41 -35 -98 -133 -220 -379 -135 -271 -200 -355 -277
-355 -76 0 -132 158 -133 380 0 72 -23 123 -60 135 -32 10 -105 -21 -139 -60
-19 -22 -38 -62 -51 -107 -102 -356 -226 -578 -322 -578 -30 0 -42 7 -72 41
-41 48 -90 176 -107 276 -26 163 -41 197 -96 219 -42 18 -67 18 -134 -2 -42
-13 -66 -29 -108 -71 l-53 -56 -102 7 c-118 8 -179 -6 -261 -58 -138 -89 -301
-330 -361 -533 -62 -214 -34 -387 76 -461 30 -20 45 -23 105 -20 86 4 169 41
272 122 66 52 221 221 291 319 21 29 41 47 50 45 17 -3 21 -10 73 -120 36 -76
88 -142 130 -163 110 -57 295 63 437 285 83 129 100 150 123 150 11 0 23 -10
28 -22 5 -13 19 -49 31 -80 29 -75 90 -144 140 -159 84 -25 184 48 299 220 33
48 67 91 76 95 24 9 54 -11 62 -42 4 -15 -1 -420 -10 -900 -10 -530 -13 -882
-7 -897 15 -39 40 -45 193 -45 139 0 144 1 166 24 13 13 25 41 27 63 3 31 36
1794 46 2526 3 188 3 189 -21 208 -31 26 -54 24 -91 -7z m-1756 -760 c39 -38
8 -147 -85 -302 -105 -175 -193 -262 -266 -262 -35 0 -43 13 -43 73 0 59 60
227 105 295 71 106 199 212 257 212 9 0 24 -7 32 -16z"/>
</g>
</svg>
