<?xml version="1.0" encoding="UTF-8"?>
<svg version="1.1" xmlns="http://www.w3.org/2000/svg" width="3000" height="2000">
<path d="M0 0 C15.24423316 -0.6375915 30.21471356 4.22549864 41.9921875 13.9140625 C51.13588576 22.71721334 56.1116598 32.94516557 56.4296875 45.5390625 C56.06621229 61.35813573 50.11362418 73.08734618 39.0546875 84.1640625 C38.31476563 84.91558594 37.57484375 85.66710937 36.8125 86.44140625 C26.56315479 96.25938171 13.84540722 103.2047499 1.0546875 109.1640625 C8.44554671 119.08337355 16.01223654 128.86390562 23.66674805 138.58056641 C27.48218493 143.42668228 31.27109379 148.29305801 35.0546875 153.1640625 C40.62306991 160.33022974 46.20590334 167.48434959 51.83056641 174.60644531 C53.04212899 176.14808259 54.2418419 177.69900846 55.44140625 179.25 C56.15941406 180.17039062 56.87742187 181.09078125 57.6171875 182.0390625 C58.23722656 182.84085938 58.85726563 183.64265625 59.49609375 184.46875 C60.26759766 185.30792969 60.26759766 185.30792969 61.0546875 186.1640625 C61.7146875 186.1640625 62.3746875 186.1640625 63.0546875 186.1640625 C71.97049403 174.50493088 85.59293271 155.25069817 84.0546875 140.1640625 C82.67187691 136.36133338 81.18181113 135.24962648 77.8046875 132.9765625 C71.68471885 130.13514848 64.69699463 129.82137414 58.0546875 129.1640625 C58.0546875 127.1840625 58.0546875 125.2040625 58.0546875 123.1640625 C86.7646875 123.1640625 115.4746875 123.1640625 145.0546875 123.1640625 C145.0546875 125.1440625 145.0546875 127.1240625 145.0546875 129.1640625 C144.42079102 129.25905029 143.78689453 129.35403809 143.13378906 129.4519043 C119.93897175 132.36161935 119.93897175 132.36161935 102.00390625 146.0703125 C100.90889986 147.59601807 99.82199674 149.12756373 98.7421875 150.6640625 C98.16460693 151.47504395 97.58702637 152.28602539 96.99194336 153.12158203 C93.32906206 158.28709173 89.76898417 163.5115288 86.3046875 168.8125 C84.42533559 171.65140563 82.46337513 174.42730839 80.4921875 177.203125 C79.85531006 178.1017627 79.21843262 179.00040039 78.56225586 179.92626953 C77.28426425 181.7251145 76.00136337 183.52048364 74.71313477 185.31201172 C74.12588623 186.13975098 73.5386377 186.96749023 72.93359375 187.8203125 C72.13804077 188.93116211 72.13804077 188.93116211 71.32641602 190.06445312 C70.04657008 192.17746427 69.33042622 193.71172107 69.0546875 196.1640625 C70.38957331 198.31335113 71.69912132 200.109346 73.3046875 202.0390625 C74.23966401 203.2030602 75.17455702 204.36712498 76.109375 205.53125 C76.59760742 206.1303418 77.08583984 206.72943359 77.58886719 207.34667969 C79.00436417 209.10166962 80.38267 210.87919803 81.75 212.671875 C94.69648631 229.6048091 107.4256156 245.16774416 129.6796875 248.4140625 C131.80316662 248.67666759 133.92774776 248.93114115 136.0546875 249.1640625 C136.0546875 251.1440625 136.0546875 253.1240625 136.0546875 255.1640625 C127.72727761 255.65479849 119.40606054 256.02565373 111.06768799 256.25211811 C107.19319207 256.36094192 103.32869313 256.50777214 99.45996094 256.74829102 C74.58988091 258.25441096 74.58988091 258.25441096 67.10327148 253.15292358 C62.16181355 248.30967281 58.68030513 242.78797575 55.45251465 236.70414734 C53.49093735 233.13963454 51.08487924 230.02407615 48.5546875 226.8515625 C47.38712594 225.28973109 46.2200236 223.72755511 45.0546875 222.1640625 C40.39776674 226.10532088 40.39776674 226.10532088 35.890625 230.21484375 C14.81711327 250.05495597 -9.10919819 259.37124075 -37.96875 258.54296875 C-55.34815378 257.66989319 -71.14465017 251.02481606 -83.9453125 239.1640625 C-84.64140625 238.52210938 -85.3375 237.88015625 -86.0546875 237.21875 C-97.74096087 225.30599846 -102.88398588 208.98059237 -103.3203125 192.6015625 C-102.89043057 175.95653434 -96.84055936 161.68444072 -85.9453125 149.1640625 C-85.29046875 148.36613281 -84.635625 147.56820313 -83.9609375 146.74609375 C-72.16596956 132.86333039 -55.84418881 122.75176004 -38.9453125 116.1640625 C-37.9553125 116.1640625 -36.9653125 116.1640625 -35.9453125 116.1640625 C-38.21710707 111.95153889 -40.54364357 107.78426783 -43.0703125 103.71875 C-54.84997173 84.71775693 -61.26588052 66.05352132 -57.29296875 43.453125 C-55.11243719 36.32194453 -51.28293737 30.18323357 -46.9453125 24.1640625 C-46.48382812 23.51695312 -46.02234375 22.86984375 -45.546875 22.203125 C-36.23807686 10.31153893 -20.74261962 2.90556365 -6.0703125 0.5390625 C-4.04848712 0.33149868 -2.02517245 0.17079768 0 0 Z M-21.9453125 21.1640625 C-28.65999426 30.25610455 -28.56609944 45.11797785 -27.3828125 55.9140625 C-24.4944152 72.99012203 -16.2788324 88.43985638 -5.9453125 102.1640625 C9.31029024 97.55859752 21.55557511 85.0301864 29.359375 71.5078125 C35.86019311 58.6859224 37.48717208 44.44009613 33.02734375 30.625 C29.53785146 21.79616408 25.17245086 16.13236525 16.9296875 11.3515625 C2.43856434 5.36609859 -11.90210436 9.7412928 -21.9453125 21.1640625 Z M-48.9453125 134.1640625 C-60.90897408 147.0760631 -66.83935363 163.65700376 -66.23046875 181.26171875 C-64.75393399 196.29001086 -61.20093824 209.65880169 -50.9453125 221.1640625 C-50.37296875 221.85242187 -49.800625 222.54078125 -49.2109375 223.25 C-41.05022994 232.35232766 -29.05261903 237.39998103 -17.0078125 238.53515625 C5.60776902 239.22089585 22.70359972 228.93979631 39.0546875 214.1640625 C37.13108505 210.85701997 35.09084151 207.77779446 32.75390625 204.75 C31.79363525 203.49956909 31.79363525 203.49956909 30.81396484 202.22387695 C30.13027832 201.33788818 29.4465918 200.45189941 28.7421875 199.5390625 C23.39549127 192.57166032 18.11140986 185.5674962 12.9296875 178.4765625 C7.84932732 171.53342756 2.62874457 164.71802195 -2.68261719 157.95043945 C-7.00019796 152.42982698 -11.18211351 146.8201015 -15.3203125 141.1640625 C-22.33123976 131.42573613 -22.33123976 131.42573613 -29.9453125 122.1640625 C-35.71356761 122.1640625 -45.02757789 130.33536731 -48.9453125 134.1640625 Z " fill="#000000" transform="translate(1906.9453125,882.8359375)"/>
<path d="M0 0 C74.58 0 149.16 0 226 0 C226 24.09 226 48.18 226 73 C223.525 73.495 223.525 73.495 221 74 C220.69819824 73.33057373 220.39639648 72.66114746 220.08544922 71.97143555 C218.68634511 68.87479091 217.28070875 65.78115176 215.875 62.6875 C215.400625 61.63498047 214.92625 60.58246094 214.4375 59.49804688 C209.96778086 49.68278525 205.43276182 40.30749454 198.515625 31.97265625 C197 30 197 30 196.046875 27.87109375 C194.70840917 25.47883579 193.47515686 25.10256987 191 24 C189.53204615 22.90865604 188.07458051 21.80313278 186.625 20.6875 C174.06232279 11.79356923 158.82684184 9.93553762 143.875 8.875 C142.72773438 8.78863281 141.58046875 8.70226562 140.3984375 8.61328125 C137.59931798 8.40334729 134.79991205 8.19903375 132 8 C132.05914947 38.40441873 132.13350379 68.80876633 132.22898628 99.21309157 C132.240254 102.8053094 132.25139252 106.39752762 132.26245117 109.98974609 C132.2657567 111.06243276 132.2657567 111.06243276 132.269129 112.15678985 C132.30446936 123.72510527 132.32935188 135.29342063 132.35034702 146.86176996 C132.37213509 158.73829167 132.40521398 170.61474354 132.44870156 182.49120581 C132.47279611 189.15936606 132.49136162 195.82746989 132.49761391 202.49567795 C132.50366598 208.77473445 132.52367085 215.0535934 132.55427551 221.33257675 C132.56305366 223.63431933 132.56677879 225.93608773 132.56500816 228.23784637 C132.5633506 231.38750019 132.58009645 234.53655522 132.60127258 237.68612671 C132.59642501 238.59082589 132.59157743 239.49552506 132.58658296 240.42763937 C132.66756035 247.75702168 134.05455271 254.48322989 137.625 260.9375 C143.727458 266.237003 152.31858588 266.60010498 160.0625 267.1875 C161.50399414 267.3102832 161.50399414 267.3102832 162.97460938 267.43554688 C165.31577773 267.63355614 167.65727632 267.82151592 170 268 C170 270.31 170 272.62 170 275 C132.38 275 94.76 275 56 275 C56 272.69 56 270.38 56 268 C56.589021 267.95512451 57.17804199 267.91024902 57.78491211 267.86401367 C60.50350163 267.65018006 63.22035495 267.41894026 65.9375 267.1875 C66.86369141 267.11724609 67.78988281 267.04699219 68.74414062 266.97460938 C75.66041301 266.36791882 82.97099891 265.63044832 88.375 260.9375 C92.46557007 253.54300796 93.44336607 246.01700156 93.39872742 237.68612671 C93.40537424 236.69752989 93.41202107 235.70893308 93.41886932 234.69037879 C93.4374011 231.40464413 93.43490063 228.11927677 93.43237305 224.83349609 C93.44139618 222.46751393 93.45172475 220.10153645 93.46325684 217.73556519 C93.49078794 211.3313905 93.50010614 204.92730462 93.50611091 198.52307844 C93.51455211 192.50262284 93.53668466 186.48223024 93.55872939 180.46181317 C93.60192728 168.54340711 93.6319339 156.62500626 93.65356445 144.70654297 C93.67459518 133.13425137 93.70188848 121.56200226 93.73754883 109.98974609 C93.73974765 109.27549439 93.74194648 108.56124269 93.74421193 107.82534699 C93.75528211 104.24187591 93.76647482 100.65840523 93.77772844 97.07493472 C93.87081437 67.3833291 93.94223708 37.69169588 94 8 C90.02667792 8.28835281 86.05432784 8.58849844 82.08203125 8.890625 C80.41049988 9.01171631 80.41049988 9.01171631 78.7052002 9.13525391 C59.63681497 10.60447456 43.78956956 15.01201937 30 29 C29.44828125 29.54140625 28.8965625 30.0828125 28.328125 30.640625 C17.40575293 42.26766623 11.1505036 59.4848115 5 74 C3.35 73.67 1.7 73.34 0 73 C0 48.91 0 24.82 0 0 Z " fill="#000000" transform="translate(346,863)"/>
<path d="M0 0 C1.19077148 0.00491455 2.38154297 0.0098291 3.60839844 0.01489258 C12.36405858 0.131356 20.30604715 0.86166997 28.75 3.3125 C29.96042969 3.64121094 31.17085937 3.96992187 32.41796875 4.30859375 C45.83005454 8.32527022 58.15701377 15.14665233 68.75 24.3125 C69.90822266 25.25609375 69.90822266 25.25609375 71.08984375 26.21875 C94.60511136 46.13057217 106.11784364 74.13292948 108.75 104.3125 C110.62812407 134.18361609 100.23337139 163.17170119 80.94921875 185.828125 C80.22347656 186.64796875 79.49773438 187.4678125 78.75 188.3125 C78.13769531 189.00859375 77.52539062 189.7046875 76.89453125 190.421875 C58.46028496 210.07458959 31.61735967 220.93683474 5.01855469 222.24267578 C-24.05910266 223.13766179 -51.46355783 213.02976385 -72.96875 193.46484375 C-87.2869977 179.94530672 -97.61886461 163.18838659 -103.25 144.3125 C-103.56324219 143.28261963 -103.56324219 143.28261963 -103.8828125 142.23193359 C-112.39366 112.90856265 -107.64057831 82.36503475 -93.9375 55.625 C-79.41912402 29.74441673 -56.61184091 12.03189203 -28.33203125 3.35546875 C-18.87747158 0.82092767 -9.77861881 -0.04782568 0 0 Z M-19.25 10.3125 C-20.50490234 10.80556641 -20.50490234 10.80556641 -21.78515625 11.30859375 C-28.72230284 14.40725737 -33.90433501 18.98492525 -39.25 24.3125 C-39.87777344 24.91707031 -40.50554688 25.52164063 -41.15234375 26.14453125 C-62.24245633 48.09546475 -65.50093214 85.12850109 -65.25390625 113.83984375 C-64.55327276 144.08038772 -59.69326739 177.94318077 -37.25 200.3125 C-23.50894077 212.35406171 -9.30529204 215.14965998 8.35205078 214.48730469 C20.28978744 213.61707261 32.77298154 206.40152823 40.81640625 197.72265625 C65.06661587 167.49562729 68.7173475 125.68919482 65 88.375 C61.97406746 62.29129451 54.69468522 35.55161464 33.875 17.9375 C24.08318321 10.51761398 13.15022796 6.90927237 0.9375 7 C0.14923828 7.00491455 -0.63902344 7.0098291 -1.45117188 7.01489258 C-7.75031198 7.14084954 -13.35749189 7.9837808 -19.25 10.3125 Z " fill="#000000" transform="translate(2490.25,918.6875)"/>
<path d="M0 0 C6.0141459 2.12050527 10.94657887 3.72363827 17.33764648 2.99804688 C22.71208438 -0.14549227 24.21676944 -3.30598975 25.89233398 -9.20898438 C26.03928711 -9.80066406 26.18624023 -10.39234375 26.33764648 -11.00195312 C28.31764648 -11.00195312 30.29764648 -11.00195312 32.33764648 -11.00195312 C32.62906213 -3.34227785 32.91294963 4.31765265 33.19213867 11.9777832 C33.28750054 14.57159414 33.38444816 17.16534738 33.4831543 19.7590332 C34.13210955 36.84708454 34.48692805 53.89741258 34.33764648 70.99804688 C32.68764648 70.99804688 31.03764648 70.99804688 29.33764648 70.99804688 C28.94577148 69.94617188 28.55389648 68.89429688 28.15014648 67.81054688 C27.87299805 67.07835937 27.59584961 66.34617187 27.31030273 65.59179688 C26.61689758 63.74271645 25.9388507 61.88784615 25.27124023 60.02929688 C20.71110441 47.62813542 14.93149117 37.04256192 6.33764648 26.99804688 C5.16202148 25.45117188 5.16202148 25.45117188 3.96264648 23.87304688 C-8.20329347 10.54844597 -27.42156058 -0.00838479 -45.66967773 -1.12475586 C-68.74598783 -1.96440483 -90.3411889 3.33842339 -107.84985352 19.24804688 C-135.21434105 45.0709972 -145.74376622 83.28668508 -146.89541626 119.99015808 C-147.88273215 159.74798657 -141.57615215 203.51022403 -113.0402832 233.57373047 C-112.58556641 234.04375488 -112.13084961 234.5137793 -111.66235352 234.99804688 C-110.35137695 236.35349609 -110.35137695 236.35349609 -109.01391602 237.73632812 C-94.43271333 251.82578937 -73.92777959 260.86849854 -53.66235352 261.99804688 C-52.71102539 262.0625 -51.75969727 262.12695312 -50.77954102 262.19335938 C-31.18326039 262.91558102 -13.93422025 254.92102897 0.34155273 241.90039062 C16.5082112 226.51907319 25.13281472 207.46189751 30.33764648 185.99804688 C32.31764648 185.66804688 34.29764648 185.33804687 36.33764648 184.99804688 C35.85308038 198.67620549 35.18274573 212.33790517 34.33764648 225.99804688 C34.29585266 226.68672852 34.25405884 227.37541016 34.21099854 228.08496094 C34.01448915 231.30598525 33.80313003 234.52451933 33.5637207 237.74267578 C33.42955912 239.67454457 33.32932079 241.61004418 33.30297852 243.54638672 C33.22045898 245.64648438 33.22045898 245.64648438 32.33764648 248.99804688 C29.85869411 251.04807111 28.03266473 252.25264383 25.21264648 253.62304688 C24.49052979 253.9978418 23.76841309 254.37263672 23.02441406 254.75878906 C20.81392257 255.88272691 18.58522704 256.95048415 16.33764648 257.99804688 C15.38752686 258.44325684 15.38752686 258.44325684 14.41821289 258.89746094 C7.10417808 262.23797724 -0.41975883 264.64289943 -8.16235352 266.74804688 C-9.24577026 267.04630371 -9.24577026 267.04630371 -10.35107422 267.35058594 C-23.42658988 270.70763785 -36.55658516 271.37856851 -49.97485352 271.31054688 C-50.7437088 271.30839172 -51.51256409 271.30623657 -52.30471802 271.30401611 C-63.66157928 271.25298862 -74.62836425 270.87647886 -85.66235352 267.99804688 C-86.4396582 267.8046875 -87.21696289 267.61132812 -88.01782227 267.41210938 C-125.54731494 257.8677172 -157.66169835 234.13005154 -177.78735352 200.99804688 C-195.3495178 171.00543064 -201.08807889 132.59332703 -192.97875977 98.73632812 C-186.3305104 73.90361159 -174.31551798 52.64493251 -156.66235352 33.99804688 C-155.84250977 33.11375 -155.02266602 32.22945312 -154.17797852 31.31835938 C-113.47774546 -11.18809704 -53.58367293 -19.30563302 0 0 Z " fill="#000000" transform="translate(2313.662353515625,870.001953125)"/>
<path d="M0 0 C7.87521957 -0.34971253 15.74857937 -0.61510626 23.62964249 -0.77718258 C27.29106586 -0.85504236 30.94713143 -0.9602905 34.60546875 -1.1315918 C60.19582231 -2.29860946 60.19582231 -2.29860946 66.45336914 3.12890625 C69.20088367 6.20093676 71.23505932 9.53069614 73.07928467 13.20565796 C74.24746066 15.48226532 75.72415822 17.38973221 77.33984375 19.3671875 C78.20806839 20.53472243 79.07402199 21.70395023 79.9375 22.875 C80.93680449 24.21796572 81.93683026 25.56039499 82.9375 26.90234375 C83.43894531 27.57507324 83.94039062 28.24780273 84.45703125 28.94091797 C87.09283869 32.45838632 89.76441227 35.94832442 92.4375 39.4375 C92.97971191 40.14535645 93.52192383 40.85321289 94.08056641 41.58251953 C95.17752261 43.01399694 96.27469046 44.44531218 97.37207031 45.87646484 C100.02141377 49.33237207 102.66713255 52.79104884 105.3125 56.25 C105.84093506 56.94085693 106.36937012 57.63171387 106.91381836 58.34350586 C111.9681149 64.95366639 117.00961133 71.57355774 122.05126953 78.19335938 C128.35636196 86.47078295 134.67623323 94.73683943 141 103 C144.74304615 107.89097598 148.48479194 112.78293929 152.22412109 117.67675781 C153.46608766 119.30152463 154.7086496 120.92583643 155.95166016 122.54980469 C158.01086676 125.24044866 160.06806319 127.93262057 162.125 130.625 C162.74544189 131.43485352 163.36588379 132.24470703 164.00512695 133.07910156 C167.9826031 138.29000387 171.88567019 143.55162712 175.75732422 148.84130859 C176.26339706 149.53210007 176.76946991 150.22289154 177.2908783 150.93461609 C178.52758858 152.62283102 179.76384135 154.3113811 181 156 C181.04693227 141.39532333 181.08209204 126.79065678 181.10362434 112.18591976 C181.11389242 105.4031362 181.12786613 98.62039977 181.15087891 91.83764648 C181.17310899 85.28240197 181.18459516 78.72718786 181.18975449 72.17190742 C181.19342765 69.6806925 181.20059991 67.18948001 181.21146011 64.69828606 C181.90197515 38.54750902 181.90197515 38.54750902 174 14 C167.16054591 7.31099075 157.10787397 6.89585646 148 6 C147.67 5.67 147.34 5.34 147 5 C147 3.35 147 1.7 147 0 C171.75 0 196.5 0 222 0 C222 1.65 222 3.3 222 5 C220.12987103 6.87012897 216.89096671 6.5291227 214.375 6.8125 C206.52304925 7.89456621 206.52304925 7.89456621 200 12 C190.57227773 25.83746334 191.85190105 44.2037026 191.79467773 60.22143555 C191.785081 61.93732428 191.77506992 63.65321074 191.76467896 65.36909485 C191.73781811 69.99638039 191.71670757 74.62367593 191.69667697 79.2509954 C191.67470028 84.09832278 191.64736914 88.94562 191.62062073 93.79292297 C191.57085091 102.95819241 191.52585427 112.12347874 191.48259836 121.28878099 C191.4330911 131.72900249 191.3782233 142.1691937 191.32291877 152.60938585 C191.20934013 174.07289564 191.10244926 195.53643439 191 217 C184.23291016 217.16162109 184.23291016 217.16162109 182.13671875 215.70703125 C181.65847656 215.08183594 181.18023438 214.45664063 180.6875 213.8125 C180.10484375 213.07386719 179.5221875 212.33523438 178.921875 211.57421875 C177.97054688 210.29998047 177.97054688 210.29998047 177 209 C176.28328125 208.07832031 175.5665625 207.15664062 174.828125 206.20703125 C173.16078117 204.05746543 171.50298531 201.90287485 169.85546875 199.73828125 C166.68224154 195.5740497 163.46716964 191.44282452 160.25 187.3125 C159.65759521 186.55146973 159.06519043 185.79043945 158.45483398 185.00634766 C157.24148992 183.44766343 156.02802888 181.88907025 154.81445312 180.33056641 C151.87486662 176.55482734 148.93752285 172.77734465 146 169 C144.83334461 167.49999123 143.66667793 165.99999124 142.5 164.5 C93.5 101.5 93.5 101.5 91.74926758 99.24902344 C90.58508741 97.75224357 89.4208623 96.25549866 88.2565918 94.75878906 C85.30150827 90.95980942 82.34725986 87.16018535 79.39453125 83.359375 C73.29903844 75.51474077 67.18722648 67.68384347 61.04223633 59.87792969 C57.56464773 55.45158174 54.11053138 51.00704452 50.65625 46.5625 C50.01333008 45.73556641 49.37041016 44.90863281 48.70800781 44.05664062 C47.13851233 42.03788436 45.56917975 40.01900169 44 38 C43.92968443 55.99464845 43.87690198 73.98926088 43.84456348 91.98401737 C43.82914403 100.34071021 43.80814957 108.6973173 43.77368164 117.05395508 C43.74362757 124.34399031 43.7243893 131.63396339 43.71773452 138.92405885 C43.71384915 142.77832423 43.70482286 146.63241194 43.68280983 150.48661995 C43.66219057 154.12687257 43.65621651 157.76687721 43.66067696 161.40718269 C43.65947979 163.35452595 43.64347259 165.30184326 43.6267395 167.24911499 C43.66852314 179.39315492 44.52497972 193.9536544 53.125 203.3125 C60.65520116 207.73240068 69.48178278 208.75593047 78 210 C78 211.98 78 213.96 78 216 C53.58 216 29.16 216 4 216 C4 214.02 4 212.04 4 210 C4.60585937 209.90203125 5.21171875 209.8040625 5.8359375 209.703125 C16.50660083 208.03535073 16.50660083 208.03535073 25.41015625 202.5 C26.50432744 200.70273021 27.27105586 198.97357747 28 197 C28.28359375 196.27167969 28.5671875 195.54335937 28.859375 194.79296875 C31.27956118 188.09179286 32.11971357 181.54138154 32.14717102 174.41703796 C32.15432632 173.13450134 32.16148163 171.85196472 32.16885376 170.53056335 C32.1716933 169.12673975 32.17440512 167.72291588 32.17700195 166.3190918 C32.18327482 164.82691289 32.18992234 163.33473552 32.19691467 161.84255981 C32.21785336 156.96145698 32.22830506 152.08035419 32.23828125 147.19921875 C32.24233212 145.51327817 32.24644914 143.82733774 32.25063133 142.14139748 C32.2696578 134.22099761 32.28389613 126.30060694 32.2922433 118.38018864 C32.30201715 109.25881771 32.32835116 100.13768934 32.36874419 91.01640385 C32.39895525 83.95034546 32.41371675 76.88435644 32.41702431 69.81823474 C32.41936834 65.60481994 32.42824473 61.39166505 32.45348549 57.17831993 C32.47686014 53.21290189 32.48096209 49.24791323 32.47072411 45.282444 C32.47023097 43.83370976 32.47648534 42.38495367 32.49028015 40.93628502 C32.57769692 31.20575516 32.00746555 22.8511425 25.625 15.125 C19.92091995 10.50741139 15.22250709 8.21762011 8.125 6.75 C7.34125 6.57726562 6.5575 6.40453125 5.75 6.2265625 C3.8357872 5.80636945 1.91820316 5.40158373 0 5 C0 3.35 0 1.7 0 0 Z " fill="#000000" transform="translate(1316,922)"/>
<path d="M0 0 C52.14 0 104.28 0 158 0 C159.125 10.125 159.125 10.125 159.11352539 14.42797852 C159.11344986 15.38829483 159.11337433 16.34861115 159.11329651 17.33802795 C159.10813522 18.34151779 159.10297394 19.34500763 159.09765625 20.37890625 C159.09553383 21.95791969 159.09553383 21.95791969 159.09336853 23.5688324 C159.08781296 26.90008499 159.07526888 30.23126804 159.0625 33.5625 C159.05747925 35.8339834 159.05291735 38.10546786 159.04882812 40.37695312 C159.03785812 45.9179921 159.02116483 51.45899108 159 57 C156.58349609 56.66894531 156.58349609 56.66894531 154 56 C152.6640625 53.296875 152.6640625 53.296875 151.625 49.75 C146.52773348 33.81565336 138.78852014 22.61939481 123.86328125 14.76171875 C106.5421127 6.37045617 85.38354968 7.65655535 67 7 C67 38.68 67 70.36 67 103 C93.00252759 103.80898715 93.00252759 103.80898715 115.578125 92.3203125 C119.72026858 87.31354672 121.51907517 82.26463167 123 76 C123.33333333 74.66666667 123.66666667 73.33333333 124 72 C125.65 72 127.3 72 129 72 C129 94.77 129 117.54 129 141 C127.35 141 125.7 141 124 141 C123.76925781 140.154375 123.53851562 139.30875 123.30078125 138.4375 C119.85403135 126.20057253 119.85403135 126.20057253 111.375 117.1875 C101.80688571 112.04063487 91.47736094 111.39286437 80.8125 110.8125 C79.46543036 110.73087417 78.11842393 110.64819812 76.77148438 110.56445312 C73.51479037 110.36601657 70.25785877 110.17809671 67 110 C67.06135898 120.53620597 67.13857128 131.07216725 67.23571491 141.60810757 C67.28033696 146.50100985 67.31961093 151.39383044 67.34643555 156.28686523 C67.37255017 161.01380761 67.41300982 165.74043422 67.46318626 170.46718025 C67.47979996 172.26553465 67.49134833 174.06394359 67.49761391 175.86236382 C67.18260552 190.76111613 67.18260552 190.76111613 73.3125 203.9375 C78.85130131 208.18820799 85.14438525 208.50667545 91.875 209.125 C93.19371094 209.25455078 93.19371094 209.25455078 94.5390625 209.38671875 C96.69211108 209.59734307 98.84598249 209.79952708 101 210 C101 211.98 101 213.96 101 216 C67.67 216 34.34 216 0 216 C0 214.02 0 212.04 0 210 C1.134375 209.90203125 2.26875 209.8040625 3.4375 209.703125 C14.8511663 208.82108098 14.8511663 208.82108098 25 204 C28.60574709 198.41690774 29.12502758 193.54294565 29.14044189 187.00506592 C29.14341302 186.30083819 29.14638414 185.59661046 29.1494453 184.87104249 C29.15811664 182.511347 29.15963922 180.15170234 29.16113281 177.79199219 C29.16576211 176.0999694 29.17078693 174.40794766 29.17617798 172.71592712 C29.18929366 168.11866641 29.19574538 163.52142029 29.20018864 158.92414379 C29.20312086 156.05093121 29.20722597 153.1777226 29.21169281 150.30451202 C29.22536589 141.31195969 29.23503333 132.31941647 29.2388947 123.32685447 C29.24337435 112.95182419 29.26091873 102.57692573 29.2898953 92.20193553 C29.31152403 84.17886357 29.32159963 76.15582866 29.32293582 68.13272786 C29.32398304 63.3425917 29.32987322 58.55257949 29.34775543 53.76247406 C29.36425659 49.25462947 29.3663817 44.74700172 29.35761642 40.23913765 C29.35684713 38.58800487 29.36117456 36.93686034 29.37107468 35.28575706 C29.65109097 22.22201432 29.65109097 22.22201432 24.1875 10.625 C19.31455821 7.00510038 13.48578619 6.52148817 7.625 5.875 C6.88894531 5.78863281 6.15289063 5.70226562 5.39453125 5.61328125 C3.59700818 5.40318115 1.79858658 5.20079233 0 5 C0 3.35 0 1.7 0 0 Z " fill="#000000" transform="translate(749,922)"/>
<path d="M0 0 C52.14 0 104.28 0 158 0 C159.16071429 40.625 159.16071429 40.625 159 57 C157.35 57 155.7 57 154 57 C153.59910156 55.77925781 153.19820312 54.55851563 152.78515625 53.30078125 C147.92664571 39.02472693 142.34725623 26.26801026 129 18 C128.26523438 17.54238281 127.53046875 17.08476563 126.7734375 16.61328125 C108.65867498 6.52596366 85.63013536 7.67690122 66 7 C66 38.68 66 70.36 66 103 C92.02043983 103.75442245 92.02043983 103.75442245 115 93 C120.20417786 86.6206852 122.10831235 80.08668456 123 72 C124.98 72 126.96 72 129 72 C129 94.77 129 117.54 129 141 C127.02 141 125.04 141 123 141 C122.91363281 140.38253906 122.82726563 139.76507812 122.73828125 139.12890625 C121.41787381 131.17012011 118.93950645 125.00631341 113.25 119.1875 C101.33029216 111.16461972 88.11929644 111.28310548 74.16992188 110.4753418 C73.38292908 110.4294265 72.59593628 110.3835112 71.78509521 110.33620453 C69.85675238 110.22375445 67.9283792 110.11182474 66 110 C66.08496764 119.25909247 66.18006025 128.51801287 66.28752708 137.77687168 C66.33714006 142.07769713 66.38346822 146.37850208 66.421875 150.67944336 C66.45917617 154.84226448 66.50564671 159.00489762 66.55806351 163.16755486 C66.57637267 164.74325141 66.59156373 166.31898789 66.60334396 167.89474678 C66.28046157 186.63248033 66.28046157 186.63248033 72 204 C79.766233 209.57575703 91.75641377 209.30855064 101 210 C101 211.98 101 213.96 101 216 C67.67 216 34.34 216 0 216 C0 214.02 0 212.04 0 210 C0.57967529 209.91959473 1.15935059 209.83918945 1.7565918 209.75634766 C4.40119003 209.38576028 7.04430672 209.0054735 9.6875 208.625 C10.59951172 208.49867188 11.51152344 208.37234375 12.45117188 208.2421875 C18.93684874 207.35669763 18.93684874 207.35669763 25 205 C26.33521435 202.87958556 26.33521435 202.87958556 27 200 C27.51213043 198.18308655 27.51213043 198.18308655 28.03460693 196.32946777 C29.58215225 189.24221095 29.2789873 182.00598782 29.25878906 174.79101562 C29.26150285 173.15898991 29.26506596 171.52696543 29.26940918 169.89494324 C29.2784893 165.48382473 29.27500705 161.07280028 29.26865101 156.66168022 C29.26356829 152.03344352 29.26828876 147.40521458 29.27142334 142.77697754 C29.27505637 135.00641441 29.27028129 127.23588937 29.26074219 119.46533203 C29.24985892 110.49655241 29.25338497 101.52786374 29.264395 92.55908632 C29.27348677 84.84247198 29.27474391 77.12588492 29.26951766 69.40926695 C29.26640835 64.80756357 29.26595998 60.20590287 29.27259064 55.60420227 C29.278391 51.27688171 29.27431818 46.9496778 29.26280212 42.62236977 C29.26016989 41.03938808 29.26089592 39.45639648 29.26532745 37.87341881 C29.76535277 24.05709665 29.76535277 24.05709665 24.8125 11.5625 C19.31312983 6.55196273 12.78790478 6.68858799 5.671875 6.24609375 C3 6 3 6 0 5 C0 3.35 0 1.7 0 0 Z " fill="#000000" transform="translate(939,922)"/>
<path d="M0 0 C2.05078125 0.03255208 4.1015625 0.06510417 6.15234375 0.09765625 C12.58378531 15.79447432 18.50799744 31.66985061 24.38220215 47.58084106 C27.23811657 55.31581156 30.10523179 63.04663428 32.97265625 70.77734375 C33.26739838 71.5721496 33.5621405 72.36695545 33.86581421 73.18584633 C41.56636768 93.94670829 49.3690929 114.66899108 57.19775391 135.38183594 C57.46388174 136.08596367 57.73000957 136.7900914 58.00420189 137.51555634 C59.57295927 141.66605028 59.57295927 141.66605028 61.14216232 145.81637573 C64.34946937 154.29870697 67.53215443 162.78969134 70.68359375 171.29296875 C71.63643137 173.85309848 72.59004979 176.41293551 73.54406738 178.97262573 C74.36035076 181.17201079 75.16628645 183.37497907 75.97167969 185.57836914 C81.6080329 201.00360346 81.6080329 201.00360346 93.15234375 212.09765625 C97.42369763 213.69816356 101.7348002 214.9683594 106.15234375 216.09765625 C106.15234375 218.07765625 106.15234375 220.05765625 106.15234375 222.09765625 C77.44234375 222.09765625 48.73234375 222.09765625 19.15234375 222.09765625 C19.15234375 220.11765625 19.15234375 218.13765625 19.15234375 216.09765625 C20.36470703 215.82501953 20.36470703 215.82501953 21.6015625 215.546875 C23.20451172 215.16982422 23.20451172 215.16982422 24.83984375 214.78515625 C25.89558594 214.54152344 26.95132812 214.29789063 28.0390625 214.046875 C31.13146093 213.10402328 33.42690978 211.80164912 36.15234375 210.09765625 C36.81234375 210.09765625 37.47234375 210.09765625 38.15234375 210.09765625 C38.69984303 208.81706472 39.21353075 207.52202357 39.71484375 206.22265625 C40.14990234 205.14371094 40.14990234 205.14371094 40.59375 204.04296875 C42.43550471 194.33189846 38.37816128 185.32785514 34.96484375 176.41015625 C34.46221574 175.07033139 33.96051039 173.73016004 33.4597168 172.38964844 C30.45703305 164.38359147 27.3669613 156.41273838 24.078125 148.51953125 C23.15234375 146.09765625 23.15234375 146.09765625 23.15234375 144.09765625 C0.38234375 144.42765625 -22.38765625 144.75765625 -45.84765625 145.09765625 C-48.44640625 152.00703125 -51.04515625 158.91640625 -53.72265625 166.03515625 C-54.53976074 168.19812256 -55.35686523 170.36108887 -56.19873047 172.58959961 C-56.85041005 174.3303886 -57.50164366 176.07134464 -58.15234375 177.8125 C-58.48758057 178.69490356 -58.82281738 179.57730713 -59.16821289 180.4864502 C-62.28906129 188.8695184 -65.20852282 197.17496935 -62.84765625 206.09765625 C-60.23824284 210.71431074 -56.78846875 212.56562137 -51.84765625 214.09765625 C-48.86370441 214.85789876 -45.87103461 215.51491892 -42.84765625 216.09765625 C-42.84765625 218.07765625 -42.84765625 220.05765625 -42.84765625 222.09765625 C-64.29765625 222.09765625 -85.74765625 222.09765625 -107.84765625 222.09765625 C-107.84765625 220.11765625 -107.84765625 218.13765625 -107.84765625 216.09765625 C-104.86959506 215.09316904 -101.89191215 214.11100882 -98.8828125 213.203125 C-88.01011316 209.84558972 -82.32432861 206.08484392 -76.79116821 195.95248413 C-75.10514853 192.63797786 -73.75423384 189.20069876 -72.39453125 185.7421875 C-72.05593582 184.8878009 -71.71734039 184.03341431 -71.3684845 183.15313721 C-66.2126791 170.04998852 -61.32323928 156.84290375 -56.39639282 143.65243912 C-54.928779 139.7249106 -53.45843026 135.79840626 -51.98828125 131.87182617 C-49.83648941 126.12403825 -47.68541102 120.37598437 -45.53533363 114.62755489 C-40.01682836 99.87336567 -34.48885815 85.12272822 -28.95822048 70.37308311 C-27.2569082 65.83578228 -25.55629318 61.29822104 -23.85629559 56.76042747 C-20.77874655 48.5458941 -17.69660349 40.33310012 -14.60888672 32.12238312 C-13.82410715 30.03502017 -13.03997161 27.94741595 -12.25585938 25.85980225 C-10.96142799 22.41464233 -9.66391161 18.97065853 -8.36412048 15.52751732 C-7.87772257 14.23785192 -7.39224435 12.94783924 -6.9077301 11.65746498 C-6.24508773 9.89331789 -5.57870233 8.13057806 -4.91210938 6.36791992 C-4.53606567 5.37024094 -4.16002197 4.37256195 -3.77258301 3.34465027 C-2.44911321 0.12944573 -2.44911321 0.12944573 0 0 Z M-12.84765625 52.09765625 C-18.47409967 67.39314239 -24.09394733 82.69104103 -29.7076416 97.99121094 C-30.76386726 100.8693382 -31.8207898 103.74720844 -32.87792969 106.625 C-34.32166379 110.55614187 -35.76216837 114.48844938 -37.19958496 118.42190552 C-37.71383695 119.82765347 -38.22921317 121.23299067 -38.74572754 122.63790894 C-39.45198501 124.55958558 -40.1538632 126.48287006 -40.85546875 128.40625 C-41.2436377 129.46642334 -41.63180664 130.52659668 -42.03173828 131.61889648 C-42.95187661 133.97934578 -42.95187661 133.97934578 -42.84765625 136.09765625 C-22.05765625 136.09765625 -1.26765625 136.09765625 20.15234375 136.09765625 C13.51368058 117.84133254 6.7752409 99.62332716 -0.04406738 81.4336853 C-0.95679148 78.99599587 -1.86701919 76.55737031 -2.77478027 74.11782837 C-4.06438975 70.65407862 -5.36307612 67.19386485 -6.6640625 63.734375 C-7.05636551 62.67527924 -7.44866852 61.61618347 -7.8528595 60.5249939 C-8.21796127 59.5598587 -8.58306305 58.59472351 -8.95922852 57.6003418 C-9.27690689 56.75150925 -9.59458527 55.9026767 -9.92189026 55.02812195 C-10.68964772 52.9211985 -10.68964772 52.9211985 -12.84765625 52.09765625 Z " fill="#000000" transform="translate(1202.84765625,915.90234375)"/>
<path d="M0 0 C29.37 0 58.74 0 89 0 C89 1.65 89 3.3 89 5 C88.04738281 5.18175781 87.09476563 5.36351562 86.11328125 5.55078125 C84.85902344 5.80214844 83.60476563 6.05351563 82.3125 6.3125 C81.07113281 6.55613281 79.82976562 6.79976562 78.55078125 7.05078125 C74.16343131 8.22363717 71.20126769 9.79873231 68 13 C66.98407981 21.22567637 69.67887529 26.23826927 73.75 33.25 C74.63691528 34.8292627 74.63691528 34.8292627 75.54174805 36.44042969 C77.34302026 39.63766984 79.16939175 42.81948822 81 46 C81.99228873 47.74920467 82.98326678 49.49915381 83.97265625 51.25 C86.39683165 55.52663487 88.84530887 59.78884365 91.30029297 64.04785156 C94.31591841 69.28556239 97.31751312 74.53129644 100.31796265 79.77770996 C101.34215548 81.56760055 102.36788649 83.3566024 103.39379883 85.14550781 C107.34677791 92.0526617 111.22146214 98.99583796 115 106 C120.22111553 97.14808816 125.04553773 88.13725389 129.75 79 C134.1758186 70.4040293 138.66170767 61.85151695 143.3125 53.375 C143.79992676 52.48329102 144.28735352 51.59158203 144.78955078 50.67285156 C147.06758509 46.50893525 149.36050053 42.35425202 151.67578125 38.2109375 C157.84047026 27.73410205 157.84047026 27.73410205 160 16 C158.42023345 11.63241012 156.0268129 10.09872028 152 8 C148.95680587 7.25729149 148.95680587 7.25729149 145.8125 6.875 C140.16123499 6.0806175 140.16123499 6.0806175 138 5 C138 3.35 138 1.7 138 0 C159.45 0 180.9 0 203 0 C202.67 1.98 202.34 3.96 202 6 C201.24976563 6.08636719 200.49953125 6.17273438 199.7265625 6.26171875 C187.26949086 7.97182052 179.65806004 11.99588765 172 22 C169.54811245 25.93242138 167.42262442 30.00110105 165.3125 34.125 C164.09067389 36.45424472 162.86667299 38.78234978 161.640625 41.109375 C161.03154297 42.27017578 160.42246094 43.43097656 159.79492188 44.62695312 C157.14874405 49.59969426 154.36283048 54.48792843 151.5625 59.375 C146.01698589 69.09222794 140.70304356 78.92394358 135.46313477 88.80810547 C134.59192993 90.44803467 134.59192993 90.44803467 133.703125 92.12109375 C133.15212631 93.17384995 132.60112762 94.22660614 132.03343201 95.31126404 C130.69689842 97.80320404 129.2605199 100.17666367 127.70422363 102.53703308 C121.08371811 112.83364796 119.72027891 120.97543813 120.015625 133.0546875 C120.0248343 134.73420676 120.03043482 136.4137492 120.03265381 138.09329224 C120.04632847 141.58166845 120.08907214 145.06791423 120.15625 148.55566406 C120.24148827 153.00042104 120.27393969 157.44352373 120.2872963 161.88902092 C120.30282897 166.17361693 120.34632691 170.45781037 120.390625 174.7421875 C120.39626717 175.54391262 120.40190933 176.34563774 120.40772247 177.17165756 C120.28663777 191.56368635 120.28663777 191.56368635 125.8125 204.5 C130.95068264 208.02332524 136.84262307 208.50131357 142.875 209.125 C144.050625 209.25455078 144.050625 209.25455078 145.25 209.38671875 C147.16603159 209.5970149 149.0829366 209.79932744 151 210 C151 211.98 151 213.96 151 216 C138.2396613 216.02312121 125.47932755 216.04091395 112.71897221 216.05181217 C106.79449285 216.05704149 100.87002778 216.06414001 94.94555664 216.07543945 C89.23327429 216.08626661 83.52100572 216.09227647 77.80871391 216.09487724 C75.62411723 216.0967318 73.43952135 216.100353 71.2549305 216.10573006 C68.20647651 216.11293821 65.15808021 216.11399104 62.10961914 216.11352539 C61.19684204 216.11712067 60.28406494 216.12071594 59.34362793 216.12442017 C53.11405216 216.11405216 53.11405216 216.11405216 52 215 C51.95936168 213.33382885 51.957279 211.66611905 52 210 C52.60996826 209.92483154 53.21993652 209.84966309 53.84838867 209.7722168 C56.62974563 209.42259825 59.40848212 209.05523048 62.1875 208.6875 C63.62706055 208.51057617 63.62706055 208.51057617 65.09570312 208.33007812 C72.02104399 207.43948356 72.02104399 207.43948356 78 204 C81.33987223 198.3937859 82.12019887 193.75166878 82.36743164 187.30493164 C82.39327835 186.63891937 82.41912506 185.9729071 82.445755 185.28671265 C82.67379779 179.06629656 82.80640727 172.84357061 82.91112614 166.61997318 C82.98249323 162.46261132 83.0832086 158.31122797 83.26196289 154.15698242 C84.24862561 130.61689855 81.29835711 114.72298205 68.01205444 95.04293823 C64.87984088 90.30592307 62.17456841 85.34673946 59.4375 80.375 C58.38515697 78.51429711 57.33074418 76.65476189 56.2734375 74.796875 C52.66717389 68.42617467 49.11341275 62.02667119 45.5625 55.625 C44.94133301 54.50641602 44.32016602 53.38783203 43.68017578 52.23535156 C38.5546015 43.00479958 38.5546015 43.00479958 36.03710938 38.44921875 C34.13377408 35.0051051 32.2232072 31.56502968 30.3125 28.125 C29.73636963 27.07908691 29.16023926 26.03317383 28.56665039 24.95556641 C24.18441693 17.08306428 20.7833514 11.05446675 12 8 C8.02102119 7.13691268 4.03823934 6.51151032 0 6 C0 4.02 0 2.04 0 0 Z " fill="#000000" transform="translate(1552,922)"/>
<path d="M0 0 C33.99 0 67.98 0 103 0 C103 1.65 103 3.3 103 5 C99.59608148 6.00551588 96.34928357 6.19752699 92.8125 6.375 C83.20013356 6.86607731 83.20013356 6.86607731 75.375 11.80078125 C71.47300829 17.68702442 70.87649395 22.95395946 70.85955811 29.956604 C70.85658698 30.64464638 70.85361586 31.33268877 70.8505547 32.04158092 C70.84190287 34.34055857 70.84036245 36.63948394 70.83886719 38.93847656 C70.83423652 40.58961599 70.82921152 42.24075435 70.82382202 43.89189148 C70.81071992 48.37346133 70.80425733 52.85501621 70.79981136 57.33660221 C70.79687708 60.1386364 70.7927716 62.94066653 70.78830719 65.74269867 C70.77463798 74.51580195 70.76496852 83.28889591 70.7611053 92.0620091 C70.75662593 102.17779847 70.73908121 112.29345264 70.7101047 122.40920091 C70.68846531 130.236132 70.67839981 138.06302512 70.67706418 145.8899858 C70.67601777 150.56109174 70.6701448 155.23207048 70.65224457 159.90314484 C70.63572483 164.29938192 70.63362726 168.6953967 70.64238358 173.09165382 C70.64315187 174.70044107 70.63883879 176.30924047 70.62892532 177.91799736 C70.39221744 191.75850708 70.39221744 191.75850708 76.3125 203.9375 C81.7095187 208.07939807 87.81389991 208.48667926 94.375 209.125 C95.62216797 209.25455078 95.62216797 209.25455078 96.89453125 209.38671875 C98.92907147 209.59718843 100.9644597 209.79943314 103 210 C103 211.98 103 213.96 103 216 C69.01 216 35.02 216 0 216 C0 214.02 0 212.04 0 210 C1.2065625 209.89042969 2.413125 209.78085938 3.65625 209.66796875 C5.27088975 209.50838226 6.88547008 209.34819381 8.5 209.1875 C9.29148437 209.11724609 10.08296875 209.04699219 10.8984375 208.97460938 C17.30877584 208.31781241 23.60001378 207.33682869 28.375 202.6875 C31.52637983 197.47560258 32.25078956 192.84719858 32.26069641 186.80924988 C32.26643473 185.75752868 32.26643473 185.75752868 32.27228898 184.6845606 C32.28256537 182.34716547 32.27863709 180.01001846 32.2746582 177.67260742 C32.27900771 175.99176304 32.28419166 174.31092064 32.29014587 172.63008118 C32.30352299 168.07210391 32.30411586 163.51420964 32.30158257 158.95621657 C32.30051176 155.14674887 32.30539918 151.33729788 32.310188 147.52783376 C32.32127923 138.5370164 32.32172307 129.54624081 32.31567383 120.55541992 C32.3096367 111.29186332 32.3219393 102.02845871 32.3432439 92.76492804 C32.36088123 84.80208978 32.3668578 76.8392998 32.36360615 68.87644273 C32.36179619 64.124879 32.36440061 59.37342365 32.37832069 54.62187767 C32.39092874 50.15092428 32.38892685 45.68020703 32.37590981 41.20925713 C32.37355076 39.5730608 32.37625451 37.93684771 32.38453293 36.30067062 C32.84767146 22.43343749 32.84767146 22.43343749 26.6875 10.5625 C21.54545338 7.57293801 16.77039833 6.73672648 10.875 6.4375 C3.48164426 6.0479576 3.48164426 6.0479576 0 5 C0 3.35 0 1.7 0 0 Z " fill="#000000" transform="translate(605,922)"/>
<path d="M0 0 C4.75403597 4.12799008 7.63872199 8.71909159 8.3359375 15.05078125 C8.44151522 23.86652075 7.30269827 29.08890994 1.625 35.8125 C-4.09930593 40.58275495 -9.83107768 42.25752638 -17.1953125 41.890625 C-24.08304169 40.88266463 -28.47002755 37.1114596 -33 32 C-36.7409332 26.10519617 -36.89049746 19.78680107 -36 13 C-33.93911997 5.90141321 -30.42750767 1.87852722 -24.18359375 -1.94140625 C-16.0271588 -5.89559922 -7.64036113 -4.36957108 0 0 Z " fill="#000000" transform="translate(2646,1099)"/>
</svg>
