<?xml version="1.0" standalone="no"?>
<!DOCTYPE svg PUBLIC "-//W3C//DTD SVG 20010904//EN"
 "http://www.w3.org/TR/2001/REC-SVG-20010904/DTD/svg10.dtd">
<svg version="1.0" xmlns="http://www.w3.org/2000/svg"
 width="300.000000pt" height="159.000000pt" viewBox="0 0 300.000000 159.000000"
 preserveAspectRatio="xMidYMid meet">

<g transform="translate(0.000000,159.000000) scale(0.100000,-0.100000)"
fill="#000000" stroke="none">
<path d="M1410 1583 c-14 -2 -52 -13 -85 -25 -218 -76 -371 -307 -351 -534 20
-239 190 -430 426 -480 344 -72 672 239 622 590 -42 294 -318 496 -612 449z
m209 -18 c91 -22 177 -71 246 -141 60 -60 117 -158 129 -219 6 -27 4 -26 -12
8 -9 22 -21 38 -25 38 -4 -1 -22 10 -41 24 -18 14 -37 25 -41 25 -5 0 13 -17
39 -37 26 -20 54 -49 62 -64 37 -73 -5 -55 -60 25 -24 35 -48 59 -64 63 -24 6
-25 7 -7 15 18 8 18 8 -2 4 -12 -2 -23 0 -25 5 -4 11 -106 13 -143 1 -16 -5
-55 -6 -85 -3 l-55 6 40 13 c26 8 82 12 162 10 66 -2 117 0 111 3 -7 4 -6 9 2
14 7 4 14 0 17 -11 3 -11 25 -34 49 -52 l45 -32 -16 30 c-9 17 -20 28 -25 25
-17 -11 -32 5 -20 20 9 11 6 22 -16 50 l-27 36 -24 -23 -23 -22 -22 22 c-24
24 -18 43 7 22 13 -10 18 -11 28 -1 9 10 5 19 -22 43 l-35 31 -20 -25 c-18
-22 -25 -24 -43 -15 -31 14 -29 28 3 25 42 -5 39 19 -5 42 l-41 20 -14 -35
c-8 -19 -22 -35 -30 -35 -9 0 -22 -12 -29 -26 -9 -17 -17 -23 -21 -15 -4 6
-18 11 -32 11 -28 0 -32 17 -7 35 11 8 25 10 39 5 12 -5 32 -6 44 -3 22 6 21
6 -6 19 l-29 12 26 1 c15 1 29 8 32 16 7 18 2 21 -46 30 -33 6 -37 5 -37 -13
0 -27 -25 -46 -47 -36 -16 7 -15 8 5 11 14 3 22 12 22 24 0 16 -7 19 -40 19
-37 0 -40 -2 -40 -29 0 -23 -5 -30 -27 -34 -27 -5 -48 2 -28 10 25 9 35 21 30
35 -5 13 -13 14 -46 5 -37 -9 -40 -12 -34 -38 5 -22 2 -30 -15 -39 -27 -14
-40 -4 -16 13 10 8 15 19 11 29 -6 16 -10 16 -47 -3 -27 -14 -38 -25 -34 -35
3 -8 8 -20 12 -28 3 -7 -6 -20 -20 -30 -29 -18 -34 -11 -11 14 14 15 14 18 0
30 -13 11 -21 8 -50 -20 l-35 -34 21 -22 c13 -14 17 -24 10 -29 -6 -3 -9 -10
-7 -14 3 -3 -4 -7 -14 -7 -14 0 -16 4 -9 17 6 12 4 21 -6 29 -11 9 -19 4 -41
-30 -26 -39 -26 -41 -8 -55 15 -11 16 -15 4 -16 -8 -1 -21 -2 -28 -3 -7 0 -24
-23 -37 -51 -16 -31 -23 -40 -20 -23 16 84 102 210 185 272 128 94 279 126
429 91z m-99 -25 c0 -5 -9 -10 -20 -10 -13 0 -20 -7 -20 -20 0 -22 -12 -28
-95 -53 l-50 -14 40 1 c22 1 50 8 62 14 36 20 57 14 75 -23 13 -26 15 -41 8
-60 -5 -14 -13 -25 -16 -25 -8 0 -96 70 -105 83 -4 5 -12 6 -18 2 -15 -9 -61
2 -61 15 0 6 6 10 13 10 28 0 38 16 28 42 -8 21 -7 28 5 32 24 9 44 7 44 -4 0
-5 -7 -10 -15 -10 -16 0 -21 -25 -6 -34 5 -3 23 -3 40 0 26 6 31 11 31 35 0
26 4 29 30 29 17 0 30 -4 30 -10z m78 4 c12 -4 22 -11 22 -16 0 -6 -9 -8 -20
-5 -13 3 -21 -1 -25 -14 -9 -28 -23 -14 -17 16 5 27 6 28 40 19z m106 -35 c14
-7 23 -16 20 -20 -3 -5 -13 -5 -23 1 -10 5 -21 6 -25 3 -14 -14 -4 -33 24 -48
29 -15 32 -15 49 6 17 21 18 21 44 4 31 -20 27 -41 -4 -22 -17 10 -22 9 -30
-5 -13 -24 -25 -23 -74 9 -40 25 -41 28 -31 55 12 32 15 33 50 17z m-401 -16
c-18 -12 -21 -19 -12 -35 9 -16 4 -25 -27 -54 -44 -39 -63 -42 -90 -13 -19 21
-18 21 10 45 32 28 48 24 22 -5 -18 -19 -15 -41 5 -41 5 0 23 10 39 22 29 21
29 23 14 46 -9 13 -14 25 -12 26 14 12 46 25 58 25 10 0 8 -5 -7 -16z m214 -9
c-3 -3 -12 -4 -19 -1 -8 3 -5 6 6 6 11 1 17 -2 13 -5z m144 -46 c48 -27 49
-38 4 -38 -20 0 -46 -7 -59 -16 -24 -15 -24 -15 -16 19 8 37 18 57 27 57 3 0
23 -10 44 -22z m-318 -24 c17 -9 40 -28 50 -41 13 -17 28 -23 46 -22 36 4 73
-18 67 -39 -3 -9 1 -30 9 -46 14 -25 13 -27 0 -16 -8 7 -15 18 -15 26 0 21
-31 33 -59 22 -32 -12 -59 2 -87 45 -16 26 -26 32 -51 30 l-31 -3 15 30 c17
35 15 35 56 14z m225 -37 c-3 -27 -30 -58 -41 -47 -3 3 0 26 6 52 9 37 14 45
25 36 7 -6 12 -25 10 -41z m-135 8 c12 -17 14 -25 6 -25 -15 0 -49 29 -49 42
0 17 26 7 43 -17z m360 -3 c15 -14 19 -13 38 4 21 19 21 18 45 -10 29 -32 24
-48 -6 -21 -16 14 -22 15 -35 5 -12 -10 -21 -8 -50 14 -19 15 -35 22 -35 17 0
-6 -13 -11 -29 -11 -16 0 -31 -6 -34 -14 -4 -9 -25 -15 -57 -17 l-51 -4 27 23
c14 13 32 21 38 19 7 -3 34 1 62 8 51 13 57 12 87 -13z m-668 -29 c-4 -10 -8
-25 -9 -32 -3 -18 -22 -26 -30 -13 -3 5 4 21 15 36 24 30 34 34 24 9z m214 -7
c19 -21 20 -24 6 -30 -35 -13 -55 -7 -55 17 0 43 17 47 49 13z m446 14 c4 -6
-12 -10 -39 -10 -25 0 -46 5 -46 10 0 6 18 10 39 10 22 0 43 -4 46 -10z m-511
-9 c3 -5 -17 -9 -46 -9 -36 -1 -48 2 -38 8 19 12 77 13 84 1z m9 -34 c6 -16 3
-17 -93 -23 l-75 -4 35 19 c41 24 125 28 133 8z m442 -7 c-4 -6 11 -10 37 -10
24 0 53 -7 64 -15 12 -8 24 -12 27 -9 3 3 18 -11 34 -32 15 -20 43 -54 62 -76
19 -21 32 -40 30 -42 -12 -11 -51 18 -73 53 -14 21 -30 42 -35 45 -6 4 -7 14
-4 24 6 14 4 15 -8 5 -20 -16 -132 -8 -162 12 -13 8 -27 12 -31 8 -4 -5 -6 -1
-4 7 2 8 17 20 33 27 39 15 37 15 30 3z m-144 -10 c30 0 46 -6 64 -26 14 -15
25 -22 25 -17 0 6 17 2 38 -8 22 -12 47 -17 60 -14 44 11 60 -2 58 -45 0 -24
-6 -40 -13 -40 -7 0 -13 4 -13 8 0 13 -47 32 -80 32 -23 0 -30 5 -35 28 -5 26
-8 28 -73 30 -71 4 -87 11 -95 43 -4 15 -2 19 10 15 8 -3 32 -6 54 -6z m-215
-15 c-21 -16 -36 -18 -60 -9 -28 11 -6 24 37 24 39 -1 41 -2 23 -15z m-101 -5
c-3 -5 -12 -10 -18 -10 -7 0 -6 4 3 10 19 12 23 12 15 0z m187 -15 c-30 -25
-66 -32 -90 -16 -20 12 13 34 43 29 14 -3 28 -1 31 3 3 5 14 9 25 9 18 0 17
-3 -9 -25z m-190 3 c24 1 55 -7 84 -23 59 -31 65 -31 104 1 34 29 48 27 31 -5
-15 -28 -39 -39 -86 -39 -48 0 -99 -18 -90 -32 3 -5 0 -8 -7 -5 -7 2 -29 0
-48 -4 l-35 -9 33 -1 c35 -1 41 -17 20 -51 -10 -16 -10 -24 0 -40 9 -15 10
-26 2 -40 -13 -24 -26 -26 -34 -5 -7 19 -26 20 -26 0 0 -18 30 -34 50 -27 11
3 12 1 4 -7 -14 -15 -52 -1 -79 28 -16 18 -17 25 -7 41 17 27 15 71 -4 98 -9
13 -11 22 -4 22 6 0 8 5 5 10 -11 18 -26 -1 -19 -23 6 -21 6 -21 -13 -4 -20
17 -53 14 -53 -5 0 -5 5 -6 10 -3 6 3 10 1 10 -5 0 -15 -32 -8 -38 8 -2 7 5
16 17 19 12 3 21 13 21 24 0 10 8 23 18 28 16 10 16 10 -1 11 -9 0 -34 -18
-56 -40 -42 -43 -61 -53 -37 -19 25 36 83 69 120 69 35 0 35 0 31 -40 -2 -22
0 -42 5 -45 5 -3 35 11 67 31 47 30 63 35 92 30 25 -4 31 -2 21 4 -25 16 -58
11 -109 -17 -40 -22 -52 -25 -62 -16 -10 10 -9 19 8 41 l21 29 -52 -2 c-57 -2
-87 -15 -128 -53 -32 -29 -37 -17 -9 19 10 13 16 31 14 39 -3 10 -2 11 4 3 6
-8 14 -8 33 3 18 10 40 12 80 7 30 -4 72 -7 92 -5z m321 -36 c39 10 48 9 71
-5 14 -10 26 -26 26 -38 0 -19 0 -19 -27 0 -16 11 -44 22 -63 26 -26 5 -31 3
-20 -4 8 -6 25 -11 38 -11 22 0 62 -32 62 -50 0 -5 -18 0 -39 11 -22 11 -65
23 -95 26 -31 3 -56 9 -56 12 0 3 3 16 6 28 6 20 8 21 29 7 19 -12 30 -13 68
-2z m307 -42 c0 -6 -44 -30 -55 -30 -13 0 -3 40 12 49 17 9 43 -2 43 -19z
m-455 -10 c-3 -5 -32 -9 -63 -9 -47 1 -52 3 -27 9 45 12 97 12 90 0z m187 -26
c48 -25 62 -56 54 -125 -8 -84 -34 -136 -94 -191 -68 -64 -103 -65 -172 -7
-52 44 -84 103 -95 180 -6 38 -4 47 10 52 9 4 14 3 11 -2 -8 -12 39 -41 66
-41 13 0 30 5 38 10 13 9 13 12 -2 24 -22 16 -23 26 -4 26 32 0 22 15 -10 16
-19 0 -37 3 -40 7 -4 4 12 24 35 45 l42 38 66 -8 c37 -5 79 -16 95 -24z m132
15 c3 -3 0 -6 -6 -6 -7 0 -17 -2 -23 -3 -17 -4 -35 0 -35 8 0 8 56 10 64 1z
m-724 -109 c28 0 30 -2 30 -40 0 -22 -4 -40 -10 -40 -5 0 -10 9 -10 19 0 24
-18 37 -32 23 -6 -6 -6 -26 -1 -53 9 -41 11 -44 40 -42 26 2 33 -2 42 -27 10
-31 -4 -45 -15 -15 -7 17 -30 20 -39 6 -3 -5 2 -26 12 -46 17 -35 23 -38 63
-21 10 4 21 -4 33 -24 18 -31 9 -42 -13 -16 -12 15 -40 11 -40 -5 0 -5 13 -23
29 -41 29 -32 29 -33 50 -14 20 18 22 18 41 1 26 -23 26 -39 0 -23 -16 10 -22
10 -32 0 -11 -11 -7 -18 17 -38 37 -29 42 -30 64 -3 15 18 21 20 39 10 12 -6
22 -16 22 -21 0 -12 -11 -12 -30 0 -14 9 -29 -3 -30 -23 0 -7 60 -37 75 -37 3
0 10 12 15 26 7 18 15 24 26 20 9 -3 20 -6 25 -6 5 0 9 -5 9 -11 0 -6 -8 -8
-19 -4 -12 4 -21 0 -25 -11 -8 -21 -5 -24 38 -34 40 -9 46 -6 46 27 0 19 5 23
30 23 17 0 30 -4 30 -10 0 -5 -9 -10 -20 -10 -13 0 -20 -7 -20 -20 0 -17 7
-20 40 -20 37 0 40 2 40 29 0 28 14 41 46 41 8 0 14 -4 14 -10 0 -5 -9 -10
-20 -10 -22 0 -28 -28 -7 -35 6 -3 26 -1 42 3 26 8 30 13 27 39 -2 23 2 32 23
41 16 7 25 8 25 1 0 -5 -7 -12 -15 -15 -17 -7 -20 -30 -5 -39 7 -5 62 17 78
30 2 2 -2 13 -8 25 -10 19 -9 26 9 43 11 12 24 17 28 13 4 -4 -1 -14 -12 -22
-17 -13 -17 -16 -4 -29 13 -13 19 -11 52 16 l38 31 -21 23 c-21 22 -21 22 -1
46 11 13 23 21 27 17 4 -4 1 -14 -5 -22 -14 -16 -7 -36 12 -36 7 0 23 16 36
36 l25 36 -24 18 c-21 16 -23 21 -12 44 6 14 16 26 22 26 7 0 8 -6 1 -18 -7
-13 -6 -23 1 -30 19 -19 25 -15 42 28 21 52 20 60 -3 60 -11 0 -22 4 -26 10
-8 13 5 60 17 60 5 0 6 -9 3 -20 -4 -14 -1 -22 10 -27 22 -8 35 13 35 59 0 33
-3 37 -27 40 -22 2 -29 9 -31 31 -2 15 1 27 7 27 6 0 11 -4 11 -10 0 -15 40
-12 40 3 0 6 5 4 11 -6 25 -43 -17 -225 -72 -312 -99 -158 -254 -245 -438
-245 -152 0 -272 51 -371 157 -110 117 -160 262 -142 408 l7 60 3 -57 c3 -57
4 -58 32 -58z m878 91 c3 -10 -1 -12 -17 -8 -17 4 -24 0 -31 -19 -11 -28 -35
-32 -44 -8 -4 9 -5 17 -4 18 2 1 17 9 33 18 35 19 56 19 63 -1z m99 -13 c-3
-7 -5 -2 -5 12 0 14 2 19 5 13 2 -7 2 -19 0 -25z m-612 12 c8 0 0 -14 -17 -30
-35 -35 -43 -34 -28 4 11 29 3 29 -32 -2 -16 -13 -18 -13 -18 -1 0 26 23 41
54 35 16 -3 34 -6 41 -6z m432 -59 c24 -14 7 -14 -18 0 -12 6 -28 7 -37 3 -9
-4 -32 -8 -49 -8 -30 -1 -33 2 -33 29 0 27 3 30 35 32 19 1 35 -3 35 -8 0 -17
20 -9 21 9 0 10 6 5 15 -15 7 -17 22 -36 31 -42z m-680 43 c8 -22 -21 -48 -44
-40 -17 7 -17 8 0 20 9 7 17 18 17 25 0 17 20 13 27 -5z m33 -40 c0 -11 -6
-28 -13 -38 -12 -16 -17 -17 -38 -6 -22 12 -23 12 -10 -3 7 -10 19 -17 25 -17
15 0 60 -59 61 -81 1 -9 11 -29 23 -44 14 -17 20 -35 16 -49 -3 -14 1 -28 10
-35 17 -14 21 -48 8 -69 -13 -19 -98 76 -128 143 -14 30 -28 80 -31 110 -3 31
-10 58 -15 61 -12 8 0 -76 19 -136 21 -63 68 -134 119 -179 24 -21 44 -42 44
-47 0 -5 -8 -19 -18 -32 l-18 -23 -27 22 c-31 24 -30 37 1 20 15 -8 23 -7 31
3 8 9 3 20 -19 41 l-30 29 -23 -22 -23 -22 -22 30 c-24 32 -19 40 8 15 15 -14
19 -14 29 -1 11 12 9 21 -9 46 -24 34 -24 34 -51 19 -17 -8 -23 -7 -35 8 -7
10 -13 27 -13 38 -1 18 1 18 19 -5 14 -19 22 -22 30 -13 9 8 9 20 -1 48 -12
32 -17 36 -42 32 -16 -2 -30 1 -32 7 -12 39 -14 66 -6 66 5 0 12 -11 15 -25 4
-14 10 -25 14 -25 20 1 28 19 24 63 -4 44 -6 47 -33 47 -26 0 -29 4 -29 30 0
17 5 30 10 30 6 0 10 -7 10 -16 0 -12 7 -15 24 -12 18 4 27 -1 35 -19 l11 -24
30 21 c17 12 30 30 30 43 0 18 2 19 10 7 5 -8 10 -24 10 -36z m714 -55 c-1
-103 -29 -173 -100 -249 -26 -27 -42 -50 -36 -50 16 0 81 79 107 130 33 64 46
122 46 196 0 35 4 64 10 64 5 0 9 -18 9 -40 0 -38 2 -40 30 -40 27 0 30 -3 30
-29 0 -17 -4 -33 -10 -36 -5 -3 -10 3 -10 15 0 19 -25 39 -35 28 -2 -2 -7 -22
-11 -45 -6 -39 -5 -42 20 -49 14 -3 26 -7 26 -9 0 -1 -5 -16 -11 -34 -13 -36
-32 -43 -23 -7 4 16 1 25 -10 29 -11 5 -22 -5 -36 -33 l-20 -39 22 -12 c13 -6
25 -13 27 -15 8 -7 -41 -64 -50 -58 -6 3 -3 14 7 26 16 16 16 21 4 28 -22 14
-24 13 -48 -20 -26 -35 -27 -38 -7 -60 13 -15 12 -19 -10 -40 -14 -13 -28 -20
-32 -16 -5 4 1 14 12 22 17 12 17 16 5 29 -13 13 -19 11 -48 -11 -31 -25 -32
-27 -17 -50 14 -22 14 -24 -14 -39 -17 -8 -32 -11 -36 -6 -3 5 4 12 15 16 15
5 19 12 15 26 -4 12 1 31 10 46 10 15 19 45 20 67 5 76 24 159 37 167 7 5 19
7 27 4 9 -4 11 0 7 10 -3 9 1 33 9 53 9 20 14 41 11 48 -3 7 4 20 15 30 10 9
19 24 19 31 0 8 6 13 13 10 8 -3 12 -29 11 -88z m-568 45 c-4 -9 -9 -15 -11
-12 -3 3 -3 13 1 22 4 9 9 15 11 12 3 -3 3 -13 -1 -22z m-26 2 c0 -8 -4 -17
-9 -21 -12 -7 -24 12 -16 25 9 15 25 12 25 -4z m86 -5 c-4 -5 0 -11 6 -14 7
-2 1 -4 -14 -3 -20 1 -24 4 -16 14 12 14 32 17 24 3z m434 -39 c-1 -15 -7 -38
-15 -52 l-14 -25 -1 28 c0 15 -7 30 -15 33 -18 7 -20 35 -3 52 18 18 48 -4 48
-36z m-83 30 c18 -11 12 -54 -6 -47 -8 3 -18 0 -23 -7 -5 -8 -8 -2 -8 18 0 41
11 52 37 36z m-312 -32 c-3 -5 -15 -10 -26 -10 -10 0 -19 5 -19 10 0 6 12 10
26 10 14 0 23 -4 19 -10z m-135 -71 c-14 -10 -33 -26 -42 -36 -10 -9 -18 -12
-18 -6 0 5 11 20 25 33 13 12 24 25 23 29 -3 26 3 31 19 15 16 -16 16 -18 -7
-35z m488 18 c4 -33 -4 -34 -35 -5 -30 28 -29 34 5 33 21 -1 28 -7 30 -28z
m-58 -29 c28 -31 38 -67 24 -81 -9 -9 -64 74 -64 96 0 24 6 22 40 -15z m25 2
c10 -11 16 -20 13 -20 -3 0 -13 9 -23 20 -10 11 -16 20 -13 20 3 0 13 -9 23
-20z m-505 6 c0 -3 -4 -8 -10 -11 -5 -3 -10 -1 -10 4 0 6 5 11 10 11 6 0 10
-2 10 -4z m80 -24 c0 -19 -54 -75 -64 -65 -14 14 -5 53 16 67 29 21 48 20 48
-2z m385 -62 c-1 -10 -9 -29 -18 -43 -9 -15 -17 -30 -17 -34 0 -11 -42 -53
-53 -53 -6 0 -2 9 8 20 21 23 11 27 -11 5 -9 -8 -21 -15 -27 -15 -6 0 7 19 29
43 44 45 74 86 74 100 0 4 -4 5 -10 2 -6 -3 -10 4 -10 17 l0 23 18 -23 c10
-13 18 -32 17 -42z m-400 0 c-10 -11 -20 -18 -23 -15 -7 6 18 35 31 35 5 0 2
-9 -8 -20z m108 -69 c27 -22 57 -41 68 -41 38 0 84 28 131 78 26 28 50 47 53
43 7 -12 -58 -94 -91 -116 -31 -20 -132 -23 -162 -4 -23 14 -68 78 -76 109
l-8 25 19 -26 c10 -14 40 -45 66 -68z m-78 38 c4 -12 23 -39 42 -60 36 -40 39
-67 4 -35 -14 13 -20 14 -23 4 -3 -7 -16 5 -31 27 -28 42 -38 73 -12 39 14
-18 14 -17 5 9 -12 35 -12 37 -1 37 5 0 13 -9 16 -21z m415 5 c0 -3 -5 -15
-11 -26 -6 -12 -13 -42 -16 -67 -8 -80 -46 -94 -121 -45 -14 9 -37 20 -51 24
l-26 8 25 1 c14 0 45 -8 69 -19 24 -11 50 -20 57 -20 16 0 34 39 34 75 0 28
20 75 32 75 4 0 8 -3 8 -6z m-470 -29 c11 -13 10 -14 -4 -9 -9 3 -16 10 -16
15 0 13 6 11 20 -6z m412 -67 c-7 -27 -13 -32 -32 -30 -13 1 -25 4 -27 6 -2 1
12 19 29 39 36 40 44 36 30 -15z m-392 -12 c0 -26 5 -46 13 -49 6 -2 38 9 69
24 32 16 68 29 80 28 15 0 18 -3 8 -6 -8 -3 -42 -19 -75 -35 -54 -26 -54 -32
0 -13 11 3 7 -1 -8 -10 -59 -34 -121 6 -110 73 8 47 23 39 23 -12z m60 -2 c0
4 5 4 12 0 14 -9 -18 -34 -44 -34 -14 0 -18 8 -18 37 l0 36 25 -23 c14 -13 25
-20 25 -16z m175 -24 c15 -16 15 -20 3 -20 -8 0 -23 9 -33 20 -15 16 -15 20
-3 20 8 0 23 -9 33 -20z m-95 -10 c-8 -5 -19 -10 -25 -10 -5 0 -3 5 5 10 8 5
20 10 25 10 6 0 3 -5 -5 -10z m55 0 c3 -5 -1 -10 -9 -10 -8 0 -18 5 -21 10 -3
6 1 10 9 10 8 0 18 -4 21 -10z m134 -27 c2 -2 0 -3 -6 -3 -6 0 -21 9 -34 21
l-24 20 30 -17 c17 -10 32 -19 34 -21z m-161 8 c10 -5 36 -6 58 -2 28 5 47 4
58 -4 15 -11 14 -13 -6 -19 -32 -8 -139 -6 -163 3 -19 8 -19 8 0 19 25 14 32
14 53 3z m164 -38 c0 -4 4 -18 9 -31 7 -19 5 -24 -18 -33 -30 -11 -46 -2 -20
12 25 15 21 39 -7 39 -42 0 -56 -11 -56 -41 0 -26 -4 -29 -30 -29 -16 0 -30 5
-30 10 0 6 9 10 20 10 13 0 20 7 20 20 0 17 -7 20 -40 20 -36 0 -40 -2 -40
-25 0 -20 -5 -25 -24 -25 -14 0 -28 5 -31 10 -3 6 3 10 15 10 11 0 23 7 27 15
7 20 5 22 -38 30 -31 6 -36 4 -47 -20 -12 -25 -13 -25 -42 -10 -37 19 -39 29
-5 21 18 -5 27 -2 31 9 5 13 23 15 123 10 64 -4 130 -2 146 3 31 10 36 9 37
-5z"/>
<path d="M1549 1089 l-24 -20 28 17 c26 15 35 15 82 -1 13 -4 12 -1 -5 9 -34
21 -54 20 -81 -5z"/>
<path d="M1557 1072 c-10 -10 -17 -24 -17 -31 0 -7 -5 -9 -12 -5 -7 4 -8 3 -4
-4 9 -15 36 -4 36 14 0 8 10 14 25 14 31 0 33 -18 3 -30 -14 -5 -17 -9 -7 -9
8 -1 31 11 50 25 19 15 27 24 18 21 -8 -2 -26 1 -40 9 -31 17 -33 17 -52 -4z"/>
<path d="M1468 1018 c0 -29 -1 -61 0 -70 1 -12 -6 -18 -21 -19 -17 -1 -18 -2
-4 -6 26 -7 50 4 41 19 -4 6 -6 38 -5 70 1 32 0 58 -3 58 -3 0 -7 -24 -8 -52z"/>
<path d="M1520 930 c-13 -8 -13 -10 2 -10 9 0 20 5 23 10 8 13 -5 13 -25 0z"/>
<path d="M1479 899 c-10 -6 -7 -9 14 -9 29 0 35 5 14 13 -8 3 -20 1 -28 -4z"/>
<path d="M1420 870 c0 -6 7 -10 15 -10 8 0 15 2 15 4 0 2 -7 6 -15 10 -8 3
-15 1 -15 -4z"/>
<path d="M1480 866 c7 -7 13 -7 20 0 6 6 3 10 -10 10 -13 0 -16 -4 -10 -10z"/>
<path d="M1463 843 c15 -2 37 -2 50 0 12 2 0 4 -28 4 -27 0 -38 -2 -22 -4z"/>
<path d="M1457 380 c-80 -15 -123 -78 -97 -140 15 -35 43 -52 117 -70 68 -16
103 -43 103 -80 0 -39 -32 -60 -91 -60 -36 0 -55 6 -77 25 -26 22 -31 23 -48
10 -19 -15 -19 -15 1 -30 25 -19 80 -35 125 -35 94 0 160 49 160 119 0 51 -28
75 -116 99 -93 26 -112 37 -120 69 -6 21 -1 31 20 50 34 28 70 29 120 2 34
-18 40 -19 54 -6 13 13 11 17 -14 30 -39 19 -91 26 -137 17z"/>
<path d="M2400 383 c-97 -16 -141 -68 -147 -177 -7 -123 46 -191 159 -203 62
-6 131 10 159 38 27 27 24 49 -6 49 -14 0 -25 -6 -25 -13 0 -29 -45 -57 -91
-57 -85 0 -119 50 -119 175 0 121 35 175 113 175 43 0 87 -35 87 -70 0 -16 6
-20 30 -20 32 0 38 16 20 51 -20 36 -112 64 -180 52z"/>
<path d="M56 223 c31 -87 60 -171 66 -186 9 -24 15 -28 45 -25 l36 3 66 180
c52 140 64 181 53 183 -20 5 -21 3 -81 -168 -29 -82 -57 -148 -60 -145 -4 2
-30 74 -57 159 l-49 156 -37 0 -37 0 55 -157z"/>
<path d="M490 195 l0 -185 120 0 c73 0 120 4 120 10 0 6 -35 10 -85 10 l-85 0
0 80 0 80 70 0 c40 0 70 4 70 10 0 6 -30 10 -70 10 l-70 0 0 75 0 75 85 0 c50
0 85 4 85 10 0 6 -47 10 -120 10 l-120 0 0 -185z"/>
<path d="M890 195 l0 -185 35 0 35 0 0 80 0 80 39 0 c38 0 40 -2 86 -80 46
-78 48 -80 86 -80 l39 0 -51 82 c-48 76 -50 83 -34 93 94 53 85 156 -16 185
-19 6 -76 10 -126 10 l-93 0 0 -185z m201 136 c32 -32 35 -47 17 -86 -15 -34
-56 -55 -108 -55 l-40 0 0 85 0 85 51 0 c43 0 55 -5 80 -29z"/>
<path d="M1842 203 c-45 -98 -82 -181 -82 -185 0 -5 6 -8 14 -8 7 0 26 29 42
65 l29 64 91 1 92 0 25 -62 c23 -60 27 -63 61 -66 l36 -3 -39 93 c-116 277
-114 273 -152 276 l-35 3 -82 -178z m100 -41 c-41 -2 -76 -1 -78 1 -2 2 14 44
37 92 l41 89 37 -89 38 -90 -75 -3z"/>
<path d="M2750 195 l0 -185 125 0 c77 0 125 4 125 10 0 6 -35 10 -85 10 l-85
0 0 80 0 80 70 0 c40 0 70 4 70 10 0 6 -30 10 -70 10 l-70 0 0 75 0 75 85 0
c50 0 85 4 85 10 0 6 -48 10 -125 10 l-125 0 0 -185z"/>
</g>
</svg>
